# Blender v2.92.0 OBJ File: 'barrier1.blend'
# www.blender.org
mtllib barrier1.mtl
o HUB
v 32.000000 0.000010 -64.000000
v 32.000000 28.800011 -63.999996
v 48.000000 9.600011 -64.000000
v 48.000000 0.000010 -64.000000
v 16.000000 0.000010 -64.000000
v 16.000000 76.800011 -63.999989
v -16.000000 0.000010 -64.000000
v -16.000000 76.800011 -63.999989
v -32.000000 0.000010 -64.000000
v -32.000000 28.800011 -63.999996
v -48.000000 0.000010 -64.000000
v -48.000000 9.600011 -64.000000
v -16.000000 67.200005 -15.999990
v -16.000000 76.800003 -15.999988
v -32.000000 28.800003 -15.999995
v -32.000000 28.799999 16.000004
v -16.000000 76.800003 16.000013
v -16.000000 67.200005 16.000011
v 16.000000 67.200005 -15.999990
v 16.000000 76.800003 -15.999988
v 16.000000 76.800003 16.000013
v 16.000000 67.200005 16.000011
v 32.000000 28.800003 -15.999995
v 32.000000 28.799999 16.000004
v -32.000000 -0.000010 64.000000
v -32.000000 28.799992 64.000008
v -48.000000 9.599990 64.000000
v -48.000000 -0.000010 64.000000
v -16.000000 -0.000010 64.000000
v -16.000000 76.799995 64.000015
v 16.000000 -0.000010 64.000000
v 16.000000 76.799995 64.000015
v 32.000000 -0.000010 64.000000
v 32.000000 28.799992 64.000008
v 48.000000 -0.000010 64.000000
v 48.000000 9.599990 64.000000
v -48.000000 9.599990 64.000000
v -48.000000 9.600011 -64.000000
v 48.000000 9.600011 -64.000000
v 48.000000 9.599990 64.000000
v 5.000000 67.200005 6.000011
v 5.000000 76.800003 6.000012
v 0.000000 76.800003 8.000012
v 0.000000 67.200005 8.000010
v 8.000000 67.200005 0.000011
v 8.000000 76.800003 0.000013
v 5.000000 67.200005 -4.999989
v 5.000000 76.800003 -4.999988
v 0.000000 67.200005 -7.999989
v 0.000000 76.800003 -7.999988
v -6.000000 67.200005 -4.999989
v -6.000000 76.800003 -4.999988
v -8.000000 67.200005 0.000011
v -8.000000 76.800003 0.000013
v -6.000000 67.200005 6.000011
v -6.000000 76.800003 6.000012
v -48.000000 9.600011 -64.000000
v -48.000000 9.599990 64.000000
v 48.000000 9.599990 64.000000
v 48.000000 9.600011 -64.000000
v 16.000000 67.200005 0.000011
vt 0.250000 0.000000
vt 0.121094 0.062500
vt 0.121094 -0.000000
vt 0.375000 0.000000
vt 0.250000 0.187500
vt 0.621094 0.500000
vt 0.621094 0.000000
vt 0.746094 0.187500
vt 0.746094 0.000000
vt 0.871094 0.058594
vt 0.871094 -0.003906
vt 0.375000 0.500000
vt 0.125000 0.250000
vt 0.125000 0.312500
vt 0.000000 -0.000000
vt 0.250000 0.000000
vt 0.000000 -0.062500
vt 0.250000 -0.062500
vt 0.125000 -0.000000
vt 0.000000 0.312500
vt 0.000000 0.250000
vt 0.000000 0.000000
vt 0.125000 -0.000000
vt 0.000000 0.312500
vt 0.000000 0.250000
vt 0.250000 0.000000
vt 0.000000 -0.062500
vt 0.250000 -0.062500
vt 0.125000 0.250000
vt 0.125000 0.312500
vt 0.000000 -0.000000
vt 0.000000 0.000000
vt 0.250000 -0.000000
vt 0.125000 0.062500
vt 0.125000 -0.000000
vt 0.375000 -0.000000
vt 0.250000 0.191406
vt 0.625000 0.500000
vt 0.625000 0.000000
vt 0.750000 0.187500
vt 0.750000 -0.000000
vt 0.875000 0.062500
vt 0.875000 0.000000
vt 0.375000 0.500000
vt -17.375000 91.914062
vt -17.375000 92.226562
vt -17.750000 92.226562
vt -17.750000 91.914062
vt -17.375000 37.250000
vt -17.375000 37.500000
vt -17.750000 37.500000
vt -17.750000 37.250000
vt -17.125000 91.914062
vt -16.750000 91.914062
vt -16.750000 92.226562
vt -17.125000 92.226562
vt -17.125000 37.250000
vt -16.750000 37.250000
vt -16.750000 37.500000
vt -17.125000 37.500000
vt -17.125000 92.226562
vt -17.375000 92.226562
vt -17.250000 37.437500
vt -17.250000 37.500000
vt -17.375000 37.500000
vt -17.289061 37.414059
vt -17.203131 37.414059
vt -17.125000 37.500000
vt -17.312500 37.375000
vt -17.187500 37.375000
vt -17.125000 37.250000
vt -17.375000 37.250000
vt -17.289061 37.328129
vt -17.203131 37.328129
vt -17.250000 37.312500
vt -17.375000 92.851562
vt -17.375000 93.164062
vt -17.750000 93.164062
vt -17.750000 92.851562
vt -17.125000 92.851562
vt -16.750000 92.851562
vt -16.750000 93.164062
vt -17.125000 93.164062
vt -17.125000 92.851562
vt -17.375000 92.851562
vt 1.921875 0.000000
vt -0.078125 -0.125000
vt 1.921875 -0.125000
vt -0.078125 0.000000
vt 2.015625 0.000000
vt 0.015625 -0.125000
vt 2.015625 -0.125000
vt 0.015625 0.000000
vt -34.984379 124.471901
vt -32.984379 124.471901
vt -32.984379 124.896896
vt -34.984379 124.896896
vt 35.078129 -125.853104
vt 33.078129 -125.853104
vt 33.078129 -126.278099
vt 35.078129 -126.278099
vt 0.078125 0.000000
vt 0.000000 -0.125000
vt 0.078125 -0.125000
vt 0.109375 0.000000
vt 0.000000 -0.125000
vt 0.109375 -0.125000
vt 0.093750 0.000000
vt 0.000000 -0.125000
vt 0.093750 -0.125000
vt 0.093750 0.000000
vt 0.000000 -0.125000
vt 0.093750 -0.125000
vt 0.109375 0.000000
vt 0.000000 -0.125000
vt 0.109375 -0.125000
vt 0.078125 0.000000
vt 0.000000 -0.125000
vt 0.078125 -0.125000
vt 0.093750 0.000000
vt 0.000000 -0.125000
vt 0.093750 -0.125000
vt 0.093750 0.000000
vt 0.000000 -0.125000
vt 0.093750 -0.125000
vt -34.375000 74.750000
vt -34.406250 74.828133
vt -34.500000 74.875000
vt -34.406250 74.656250
vt -34.500000 74.625000
vt -34.578129 74.656250
vt -34.625000 74.750000
vt -34.578129 74.828133
vt 0.000000 0.000000
vt 0.000000 0.000000
vt 0.000000 0.000000
vt 0.000000 0.000000
vt 0.000000 0.000000
vt 0.000000 0.000000
vt 0.000000 0.000000
vt 0.000000 0.000000
vn 0.0000 0.0000 -1.0000
vn 0.0209 -0.0207 -0.9996
vn 0.0101 0.0212 -0.9997
vn 0.0195 0.0015 -0.9998
vn 0.0068 -0.0096 -0.9999
vn 0.0184 -0.0068 0.9998
vn -0.0068 -0.0096 0.9999
vn 0.0172 0.0433 0.9989
vn -0.0101 0.0212 0.9997
vn 0.0029 -0.0094 1.0000
vn -0.0163 0.0463 0.9988
vn 0.0174 0.0479 -0.9987
vn 0.0098 0.0065 -0.9999
vn -0.0026 -0.0082 -1.0000
vn -0.0184 -0.0068 -0.9998
vn 0.0185 -0.0145 -0.9997
vn -0.0154 0.0396 -0.9991
vn 0.0000 -0.0000 1.0000
vn -0.0125 -0.0150 0.9998
vn -0.0098 0.0065 0.9999
vn -0.0257 -0.0143 0.9996
vn -0.0185 -0.0145 0.9997
vn -0.9338 0.3576 -0.0155
vn -0.5730 0.8196 0.0031
vn -0.6012 0.7988 -0.0215
vn -0.9454 0.3254 0.0169
vn 0.0220 0.9997 -0.0083
vn -0.0112 0.9999 -0.0036
vn -0.9385 0.3427 0.0424
vn -0.9423 0.3347 0.0000
vn -0.5624 0.8268 0.0121
vn -0.5955 0.8033 -0.0060
vn 0.0069 0.9999 -0.0095
vn -0.0190 0.9997 -0.0138
vn -0.9056 0.4232 -0.0284
vn -0.5459 0.8378 0.0014
vn -0.5720 0.8201 -0.0134
vn -0.9161 0.3985 0.0439
vn 0.0000 1.0000 -0.0000
vn -0.0096 1.0000 -0.0022
vn 0.0148 0.9998 -0.0129
vn 0.9511 0.3082 0.0220
vn 0.9423 0.3316 -0.0462
vn 0.9391 0.3436 -0.0048
vn 0.9475 0.3196 0.0112
vn 0.9441 0.3292 0.0190
vn 0.9516 0.3072 0.0069
vn 0.9417 0.3358 -0.0208
vn 0.9362 0.3509 0.0213
vn 0.9279 0.3726 0.0148
vn 0.9141 0.4039 -0.0368
vn 0.9042 0.4268 0.0166
vn 0.9222 0.3866 0.0096
vn -1.0000 0.0000 0.0000
vn 1.0000 0.0000 0.0000
vn -0.7071 0.7071 0.0000
vn 0.7071 0.7071 0.0000
vn 0.5230 0.6352 0.5684
vn 0.0294 -0.0000 0.9996
vn 0.6771 -0.0000 0.7359
vn 0.7894 0.6131 -0.0303
vn 0.9993 -0.0000 -0.0384
vn 0.5335 0.6564 -0.5335
vn 0.7071 0.0000 -0.7071
vn 0.0303 0.6131 -0.7894
vn 0.0384 0.0000 -0.9993
vn -0.5684 0.6352 -0.5230
vn -0.7359 0.0000 -0.6771
vn -0.7703 0.6373 -0.0226
vn -0.9996 -0.0000 -0.0294
vn -0.5554 0.6189 0.5554
vn -0.7071 -0.0000 0.7071
vn 0.0226 0.6373 0.7703
usemtl TCEMWL01
s 1
f 1/1/1 3/2/1 4/3/1
f 5/4/1 2/5/2 1/1/1
f 8/6/3 5/4/1 7/7/1
f 10/8/4 7/7/1 9/9/1
f 12/10/1 9/9/1 11/11/1
f 1/1/1 2/5/2 3/2/1
f 5/4/1 6/12/5 2/5/2
f 8/6/3 6/12/5 5/4/1
f 10/8/4 8/6/3 7/7/1
f 12/10/1 10/8/4 9/9/1
s 2
f 13/13/6 14/14/7 15/15/8
f 20/16/9 13/17/6 19/18/10
f 23/19/11 20/20/9 19/21/10
f 20/16/9 14/22/7 13/17/6
s 3
f 16/23/12 17/24/13 18/25/14
f 17/26/13 22/27/15 18/28/14
f 22/29/15 21/30/16 24/31/17
f 17/26/13 21/32/16 22/27/15
s 4
f 25/33/18 27/34/18 28/35/18
f 29/36/18 26/37/19 25/33/18
f 32/38/20 29/36/18 31/39/18
f 34/40/21 31/39/18 33/41/18
f 36/42/18 33/41/18 35/43/18
f 25/33/18 26/37/19 27/34/18
f 29/36/18 30/44/22 26/37/19
f 32/38/20 30/44/22 29/36/18
f 34/40/21 32/38/20 31/39/18
f 36/42/18 34/40/21 33/41/18
s 10
f 15/45/23 14/46/24 8/47/25
f 10/48/26 15/45/23 8/47/25
f 14/49/24 20/50/27 6/51/28
f 8/52/25 14/49/24 6/51/28
s 11
f 16/53/29 26/54/30 30/55/31
f 17/56/32 16/53/29 30/55/31
f 17/57/32 30/58/31 32/59/33
f 21/60/34 17/57/32 32/59/33
s 12
f 16/53/35 18/61/36 13/62/37
f 15/45/38 16/53/35 13/62/37
f 45/63/39 61/64/39 19/65/40
f 47/66/39 45/63/39 19/65/40
f 61/64/39 45/63/39 41/67/39
f 22/68/41 61/64/39 41/67/39
f 49/69/39 47/66/39 19/65/40
f 22/68/41 41/67/39 44/70/39
f 18/71/36 22/68/41 44/70/39
f 49/69/39 19/65/40 13/72/37
f 51/73/39 49/69/39 13/72/37
f 18/71/36 44/70/39 55/74/39
f 51/73/39 13/72/37 18/71/36
f 53/75/39 51/73/39 18/71/36
f 18/71/36 55/74/39 53/75/39
s 13
f 20/76/42 23/77/43 2/78/44
f 6/79/45 20/76/42 2/78/44
s 14
f 21/80/46 32/81/47 34/82/48
f 24/83/49 21/80/46 34/82/48
s 15
f 22/84/50 24/83/51 23/77/52
f 19/85/53 22/84/50 23/77/52
usemtl TWRNFL0
s 5
f 37/86/54 11/87/54 28/88/54
f 37/86/54 38/89/54 11/87/54
s 6
f 39/90/55 35/91/55 4/92/55
f 39/90/55 40/93/55 35/91/55
s 8
f 57/94/56 58/95/56 26/96/56
f 10/97/56 57/94/56 26/96/56
s 9
f 2/98/57 34/99/57 59/100/57
f 60/101/57 2/98/57 59/100/57
usemtl COMPFRED
s 7
f 42/102/58 44/103/59 41/104/60
f 46/105/61 41/106/60 45/107/62
f 48/108/63 45/109/62 47/110/64
f 50/111/65 47/112/64 49/113/66
f 52/114/67 49/115/66 51/116/68
f 54/117/69 51/118/68 53/119/70
f 56/120/71 53/121/70 55/122/72
f 43/123/73 55/124/72 44/125/59
f 43/126/73 42/127/58 46/128/61
f 56/129/71 43/126/73 46/128/61
f 54/130/69 56/129/71 46/128/61
f 52/131/67 54/130/69 46/128/61
f 50/132/65 52/131/67 46/128/61
f 48/133/63 50/132/65 46/128/61
f 42/102/58 43/134/73 44/103/59
f 46/105/61 42/135/58 41/106/60
f 48/108/63 46/136/61 45/109/62
f 50/111/65 48/137/63 47/112/64
f 52/114/67 50/138/65 49/115/66
f 54/117/69 52/139/67 51/118/68
f 56/120/71 54/140/69 53/121/70
f 43/123/73 56/141/71 55/124/72
