# Blender v2.78 (sub 0) OBJ File: 'ladder1.blend'
# www.blender.org
mtllib cavelad1.mtl
o cavelad1.003
v 3.126810 0.000004 2.801547
v 3.397776 0.000004 3.365885
v 2.843179 0.000004 3.576227
v 3.000431 33.450207 3.602409
v 2.717588 33.450092 3.485252
v 2.601442 0.000004 3.073406
v 0.376777 0.000013 3.043934
v 0.192082 0.000017 3.571417
v -0.397989 0.000017 3.364853
v -0.126810 0.000013 2.801546
v -0.281982 33.451809 2.921976
v -0.399139 33.451904 3.204818
v -0.281981 33.451809 3.487661
v 0.000861 33.451584 3.604818
v 0.283704 33.451355 3.487661
v 0.400861 33.451263 3.204818
v 0.283704 33.451355 2.921976
v 0.000861 33.451580 2.804818
v -0.169869 34.194405 2.917856
v -0.308832 34.157829 3.204819
v -0.097258 34.415688 3.487349
v 0.324780 34.627541 3.604568
v 0.398538 34.125519 3.488258
v 0.532470 34.128132 3.204819
v 0.356436 33.978210 2.923190
v 0.249767 34.536537 2.804948
v 0.274452 34.876938 2.920553
v 0.143251 34.911282 3.204819
v 0.827164 34.640987 2.924190
v 0.589273 35.109699 3.489537
v 1.095741 34.776230 3.490244
v 0.955904 34.553509 3.204818
v 0.953081 35.267273 2.918941
v 1.076315 35.442829 3.204818
v 1.304152 35.335129 3.492232
v 1.530111 35.092857 3.600855
v 1.624119 34.707363 3.204818
v 1.471612 35.092854 2.808783
v 1.697571 35.335125 2.917406
v 1.905981 34.776226 2.919393
v 2.150825 35.353935 3.204818
v 2.048640 35.267273 3.490697
v 2.174557 34.640984 3.485447
v 2.412441 35.109695 2.920100
v 2.741842 34.544643 3.603969
v 2.676943 34.627529 2.805070
v 2.858474 34.911270 3.204819
v 2.727279 34.876926 3.489084
v 2.236578 34.414288 3.204819
v 3.099240 34.415337 2.922337
v 2.603460 34.125072 2.921355
v 3.310704 34.157440 3.204818
v 3.174639 34.189125 3.489449
v 2.645233 33.978725 3.486654
v 2.518281 33.985176 3.204863
v 3.283704 33.451797 2.921976
v 3.400861 33.451893 3.204818
v 3.283703 33.451797 3.487661
v 2.600862 33.451256 3.204818
v 2.718018 33.451347 2.921976
v 3.000861 33.451572 2.804818
v 3.126810 -0.000021 -3.598454
v 3.397777 -0.000017 -3.034116
v 2.843179 -0.000013 -2.823773
v 3.000430 33.450184 -2.797591
v 2.717587 33.450073 -2.914748
v 2.601442 -0.000013 -3.326594
v 0.376776 -0.000008 -3.356066
v 0.282843 -0.000008 -2.917157
v -0.126810 -0.000008 -2.801547
v -0.400000 -0.000006 -3.200000
v -0.126810 -0.000008 -3.598454
v -0.281982 33.451786 -3.478024
v -0.399139 33.451881 -3.195182
v -0.281982 33.451790 -2.912339
v 0.000861 33.451561 -2.795182
v 0.283704 33.451336 -2.912339
v 0.400861 33.451241 -3.195182
v 0.283703 33.451332 -3.478024
v 0.000861 33.451561 -3.595182
v -0.169869 34.194386 -3.482144
v -0.308832 34.157806 -3.195182
v -0.097259 34.415665 -2.912652
v 0.324779 34.627522 -2.795433
v 0.398537 34.125500 -2.911743
v 0.532469 34.128109 -3.195182
v 0.356436 33.978191 -3.476811
v 0.249767 34.536514 -3.595053
v 0.274452 34.876919 -3.479448
v 0.143251 34.911263 -3.195181
v 0.827164 34.640965 -3.475811
v 0.589273 35.109680 -2.910463
v 1.095741 34.776211 -2.909757
v 0.955903 34.553486 -3.195182
v 0.953080 35.267254 -3.481060
v 1.076315 35.442810 -3.195182
v 1.304152 35.335106 -2.907769
v 1.530112 35.092834 -2.799146
v 1.624119 34.707340 -3.195182
v 1.471612 35.092834 -3.591218
v 1.697570 35.335106 -3.482595
v 1.905980 34.776207 -3.480607
v 2.150825 35.353916 -3.195182
v 2.048640 35.267250 -2.909304
v 2.174556 34.640961 -2.914553
v 2.412441 35.109673 -3.479901
v 2.741842 34.544621 -2.796031
v 2.676943 34.627506 -3.594931
v 2.858474 34.911251 -3.195182
v 2.727279 34.876904 -2.910917
v 2.236577 34.414265 -3.195182
v 3.099239 34.415314 -3.477664
v 2.603460 34.125050 -3.478645
v 3.310703 34.157417 -3.195182
v 3.174639 34.189102 -2.910551
v 2.645233 33.978703 -2.913346
v 2.518280 33.985153 -3.195138
v 3.283703 33.451775 -3.478024
v 3.400861 33.451870 -3.195182
v 3.283703 33.451778 -2.912339
v 2.600861 33.451233 -3.195182
v 2.718018 33.451324 -3.478024
v 3.000860 33.451550 -3.595182
v 0.236842 29.624807 3.169776
v -0.163098 29.624809 3.171685
v 0.236842 29.144808 3.169776
v 0.236842 25.784807 3.169776
v -0.163098 29.144808 3.171685
v -0.163098 25.784807 3.171685
v 0.236842 25.304808 3.169776
v 0.236842 21.944807 3.169776
v -0.163098 25.304808 3.171685
v -0.163098 21.944807 3.171685
v 0.236842 21.464808 3.169776
v 0.236842 18.104809 3.169777
v -0.163099 21.464808 3.171685
v -0.163099 18.104809 3.171685
v 0.236842 17.624807 3.169777
v 0.236842 14.264809 3.169777
v -0.163099 17.624807 3.171685
v -0.163099 14.264809 3.171685
v 0.236842 13.784808 3.169777
v 0.236842 10.424807 3.169777
v -0.163099 13.784808 3.171685
v -0.163099 10.424807 3.171685
v 0.236842 9.944809 3.169777
v -0.163099 9.944809 3.171685
v -0.180867 29.624807 -3.243047
v 0.219138 29.624807 -3.245041
v -0.180867 29.144808 -3.243047
v -0.180867 25.784807 -3.243047
v 0.219138 29.144808 -3.245041
v 0.219138 25.784807 -3.245041
v -0.180867 25.304808 -3.243047
v -0.180867 21.944807 -3.243047
v 0.219138 25.304808 -3.245041
v 0.219137 21.944807 -3.245041
v -0.180867 21.464808 -3.243047
v -0.180867 18.104809 -3.243047
v 0.219137 21.464808 -3.245041
v 0.219137 18.104809 -3.245041
v -0.180867 17.624807 -3.243047
v -0.180867 14.264809 -3.243047
v 0.219137 17.624807 -3.245041
v 0.219137 14.264809 -3.245040
v -0.180867 13.784808 -3.243047
v -0.180867 10.424807 -3.243047
v 0.219137 13.784808 -3.245040
v 0.219137 10.424807 -3.245040
v -0.180867 9.944809 -3.243047
v 0.219137 9.944809 -3.245040
vt 0.2740 0.0651
vt 0.2740 0.0729
vt 0.2748 0.0827
vt 0.2741 0.0827
vt 0.2740 0.0676
vt 0.2747 0.0868
vt 0.2730 0.0685
vt 0.2732 0.0832
vt 0.2739 0.0848
vt 0.2732 0.0781
vt 0.2730 0.0634
vt 0.2701 0.0670
vt 0.2691 0.0683
vt 0.2713 0.0607
vt 0.2724 0.0518
vt 0.2710 0.0604
vt 0.2713 0.0654
vt 0.2704 0.0473
vt 0.2700 0.0489
vt 0.2715 0.0473
vt 0.2720 0.0536
vt 0.2701 0.0679
vt 0.2689 0.0536
vt 0.2685 0.0615
vt 0.2696 0.0597
vt 0.2694 0.0704
vt 0.2690 0.0782
vt 0.2694 0.0761
vt 0.2751 0.1000
vt 0.2745 0.1052
vt 0.2732 0.0866
vt 0.2735 0.0991
vt 0.2726 0.0714
vt 0.2721 0.0695
vt 0.2729 0.0528
vt 0.2718 0.0545
vt 0.2704 0.0523
vt 0.2690 0.0577
vt 0.2679 0.0708
vt 0.2677 0.0682
vt 0.2747 0.0975
vt 0.2676 0.0815
vt 0.2672 0.0835
vt 0.2674 0.0866
vt 0.2680 0.0892
vt 0.2690 0.0876
vt 0.2686 0.0896
vt 0.2689 0.0844
vt 0.2739 0.1048
vt 0.2683 0.0819
vt 0.2735 0.1023
vt 0.2750 0.1032
vt 0.2740 0.0971
vt 0.2740 0.0651
vt 0.2740 0.0729
vt 0.2748 0.0827
vt 0.2741 0.0827
vt 0.2740 0.0676
vt 0.2747 0.0868
vt 0.2730 0.0685
vt 0.2732 0.0832
vt 0.2739 0.0848
vt 0.2732 0.0781
vt 0.2730 0.0634
vt 0.2701 0.0670
vt 0.2691 0.0683
vt 0.2713 0.0607
vt 0.2724 0.0518
vt 0.2710 0.0604
vt 0.2713 0.0654
vt 0.2704 0.0473
vt 0.2700 0.0489
vt 0.2715 0.0473
vt 0.2720 0.0536
vt 0.2701 0.0679
vt 0.2689 0.0536
vt 0.2685 0.0615
vt 0.2696 0.0597
vt 0.2694 0.0704
vt 0.2690 0.0782
vt 0.2694 0.0761
vt 0.2683 0.0819
vt 0.2676 0.0815
vt 0.2739 0.1048
vt 0.2689 0.0844
vt 0.2747 0.0975
vt 0.2704 0.0523
vt 0.2690 0.0577
vt 0.2732 0.0866
vt 0.2735 0.1023
vt 0.2718 0.0545
vt 0.2680 0.0892
vt 0.2686 0.0896
vt 0.2751 0.1000
vt 0.2745 0.1052
vt 0.2735 0.0991
vt 0.2726 0.0714
vt 0.2721 0.0695
vt 0.2729 0.0528
vt 0.2679 0.0708
vt 0.2677 0.0682
vt 0.2672 0.0835
vt 0.2674 0.0866
vt 0.2690 0.0876
vt 0.2740 0.0971
vt 0.2750 0.1032
vt 0.2301 0.8438
vt 0.2291 0.8405
vt 0.2288 0.8451
vt 0.2298 0.8481
vt 0.2236 0.8572
vt 0.1747 0.0975
vt 0.2251 0.8620
vt 0.2248 0.8568
vt 0.2237 0.8629
vt 0.3237 0.8629
vt 0.3236 0.8572
vt 0.2301 0.8438
vt 0.2291 0.8405
vt 0.2288 0.8451
vt 0.2298 0.8481
vt 0.2236 0.8572
vt 0.1747 0.0975
vt 0.2252 0.8610
vt 0.2248 0.8568
vt 0.2245 0.8637
vt 0.3234 0.8620
vt 0.3236 0.8572
vt 0.2234 0.8620
vt 0.3240 0.8639
vt 0.5260 0.4803
vt 0.6796 0.5051
vt 0.5257 0.4743
vt 0.6907 0.5080
vt 0.5328 0.4705
vt 0.6880 0.5023
vt 0.6821 0.5108
vt 0.5332 0.4765
vt 0.5241 0.4374
vt 0.6618 0.4653
vt 0.5239 0.4327
vt 0.6713 0.4668
vt 0.5301 0.4288
vt 0.6691 0.4622
vt 0.6639 0.4698
vt 0.5304 0.4334
vt 0.5226 0.4037
vt 0.6475 0.4330
vt 0.5224 0.4000
vt 0.6556 0.4335
vt 0.5279 0.3961
vt 0.6539 0.4298
vt 0.6491 0.4367
vt 0.5282 0.3998
vt 0.5214 0.3766
vt 0.6356 0.4063
vt 0.5212 0.3736
vt 0.6427 0.4062
vt 0.5262 0.3697
vt 0.6413 0.4031
vt 0.6369 0.4094
vt 0.5264 0.3727
vt 0.5204 0.3543
vt 0.6256 0.3839
vt 0.5203 0.3518
vt 0.6319 0.3833
vt 0.5248 0.3480
vt 0.6307 0.3807
vt 0.6267 0.3865
vt 0.5250 0.3505
vt 0.5196 0.3357
vt 0.6170 0.3647
vt 0.5195 0.3335
vt 0.6228 0.3639
vt 0.5236 0.3299
vt 0.6217 0.3617
vt 0.6180 0.3670
vt 0.5237 0.3320
vn -0.4857 0.5712 -0.6617
vn -0.1409 0.1049 -0.9844
vn -0.6776 0.2540 -0.6902
vn -0.6763 0.3438 0.6515
vn -0.7079 0.7059 0.0258
vn -0.9578 0.2873 0.0133
vn 0.3550 -0.6272 -0.6932
vn 0.8662 -0.4992 0.0220
vn 0.6581 -0.2055 -0.7243
vn -0.1458 0.1417 0.9791
vn -0.3715 0.6572 0.6558
vn -0.3540 -0.6218 0.6986
vn 0.1369 0.1015 0.9854
vn -0.0009 0.0939 0.9956
vn -0.2141 0.9768 0.0032
vn -0.2407 -0.6747 -0.6977
vn -0.0645 -0.9970 -0.0419
vn 0.3253 0.9456 -0.0054
vn 0.3657 0.6369 -0.6786
vn 0.0895 0.7495 -0.6559
vn 0.0009 0.0939 -0.9956
vn -0.6961 -0.7158 0.0556
vn 0.7164 0.6972 -0.0284
vn 0.6764 0.3438 -0.6514
vn 0.1459 0.1418 -0.9791
vn -0.6263 -0.2783 -0.7282
vn -0.6548 -0.2204 0.7230
vn -0.9355 -0.3527 -0.0189
vn -0.7177 0.0964 -0.6896
vn -0.7122 0.1118 0.6930
vn 0.6260 -0.2757 0.7295
vn 0.9864 -0.1642 -0.0091
vn 0.5100 -0.8589 -0.0472
vn 0.2359 -0.6732 0.7008
vn -0.2593 0.6622 -0.7030
vn -0.0499 0.7240 0.6880
vn 0.2073 0.6883 0.6952
vn 0.4905 0.5599 0.6677
vn 0.6768 0.2522 0.6916
vn 0.9576 0.2877 -0.0135
vn -0.0342 0.0043 -0.9994
vn 0.7122 0.1117 -0.6930
vn 0.9919 0.1268 0.0000
vn 0.7143 0.0965 0.6931
vn 0.0311 0.0029 0.9995
vn -0.9891 -0.1474 0.0057
vn -0.6861 -0.0958 0.7211
vn -0.6843 -0.1121 -0.7206
vn -0.0448 0.0106 0.9989
vn 0.0448 0.0106 -0.9989
vn 0.6809 -0.1166 0.7231
vn -0.9919 0.1269 0.0000
vn 0.6864 -0.0931 -0.7212
vn -0.0008 -1.0000 -0.0000
vn -0.1409 0.1049 -0.9845
vn 0.3657 0.6369 -0.6787
vn 0.4905 0.5599 0.6678
vn 0.9576 0.2877 -0.0136
vn 0.7601 -0.5744 0.3039
vn 0.7080 -0.0002 -0.7062
vn 1.0000 -0.0001 -0.0012
vn -0.0007 0.0001 -1.0000
vn 0.2590 -0.5771 -0.7745
vn -0.0022 -0.0006 1.0000
vn 0.7040 -0.0002 0.7102
vn -0.7726 -0.5801 -0.2582
vn -0.7074 -0.0003 0.7068
vn -1.0000 -0.0000 0.0013
vn -0.3014 -0.5831 0.7544
vn -0.7064 0.0001 -0.7078
vn 0.7064 -0.0001 -0.7078
vn -0.2694 -0.5786 -0.7699
vn 0.0007 0.0001 -1.0000
vn 0.3539 -0.5787 0.7348
vn 1.0000 -0.0002 0.0009
vn 0.7076 -0.0002 0.7066
vn 0.7496 -0.5845 -0.3105
vn -0.7571 -0.5732 0.3135
vn -0.0013 -0.0004 1.0000
vn -0.7063 -0.0001 0.7079
vn -0.7080 -0.0002 -0.7062
vn -1.0000 -0.0000 -0.0012
vn 0.0008 -1.0000 -0.0017
vn 0.0021 -1.0000 -0.0015
vn 0.0023 -1.0000 -0.0011
vn 0.0066 -1.0000 0.0024
vn 0.0038 -1.0000 -0.0004
vn 0.0003 -1.0000 -0.0022
vn -0.0046 -1.0000 -0.0022
vn -0.0005 -1.0000 -0.0019
vn -0.2087 -0.5867 -0.7824
vn 0.5791 -0.6079 0.5432
vn 1.0000 0.0006 0.0004
vn 0.7070 -0.0001 0.7072
vn 0.7239 -0.5918 -0.3547
vn 0.0003 0.0006 1.0000
vn -0.2729 -0.5972 0.7543
vn -0.7999 -0.6001 -0.0000
vn -0.7075 0.0007 0.7067
vn -1.0000 0.0000 0.0000
vn -0.7075 0.0009 -0.7067
vn 0.3500 0.9367 0.0003
vn 0.3649 -0.9310 0.0001
vn 0.9242 -0.3819 -0.0026
vn -0.3500 0.9367 -0.0002
vn -0.3649 -0.9310 -0.0002
vn -0.9242 -0.3818 0.0026
vn 0.9163 0.4005 -0.0025
vn -0.9164 0.4002 0.0025
vn 0.9157 0.4018 -0.0025
vn -0.9158 0.4017 0.0025
vn -0.3501 0.9367 -0.0002
vn 0.9254 -0.3790 -0.0026
vn -0.9254 -0.3790 0.0026
usemtl SHAWN2
s 1
f 27/1/1 26/2/2 19/3/3
f 21/4/4 28/5/5 20/6/6
f 29/7/7 24/8/8 25/9/9
f 22/10/10 30/11/11 21/4/4
f 43/12/12 45/13/13 36/14/14
f 30/11/11 34/15/15 28/5/5
f 40/16/16 37/17/17 29/7/7
f 41/18/18 44/19/19 39/20/20
f 38/21/21 29/7/7 26/2/2
f 49/22/22 43/12/12 37/17/17
f 40/16/16 49/22/22 37/17/17
f 47/23/23 50/24/24 44/19/19
f 46/25/25 51/26/26 40/16/16
f 54/27/27 45/13/13 43/12/12
f 51/26/26 55/28/28 49/22/22
f 11/29/29 20/6/6 19/3/3
f 20/6/6 13/30/30 21/4/4
f 23/31/31 16/32/32 24/8/8
f 16/32/32 25/9/9 24/8/8
f 19/3/3 28/5/5 27/1/1
f 23/31/31 32/33/33 31/34/34
f 26/2/2 29/7/7 25/9/9
f 21/4/4 30/11/11 28/5/5
f 23/31/31 31/34/34 22/10/10
f 28/5/5 33/35/35 27/1/1
f 29/7/7 32/33/33 24/8/8
f 38/21/21 44/19/19 46/25/25
f 30/11/11 35/36/36 34/15/15
f 32/33/33 37/17/17 31/34/34
f 29/7/7 37/17/17 32/33/33
f 42/37/37 35/36/36 36/14/14
f 34/15/15 39/20/20 33/35/35
f 35/36/36 41/18/18 34/15/15
f 34/15/15 41/18/18 39/20/20
f 33/35/35 26/2/2 27/1/1
f 37/17/17 43/12/12 31/34/34
f 41/18/18 48/38/38 47/23/23
f 41/18/18 47/23/23 44/19/19
f 47/23/23 53/39/39 52/40/40
f 44/19/19 50/24/24 46/25/25
f 40/16/16 51/26/26 49/22/22
f 47/23/23 52/40/40 50/24/24
f 49/22/22 54/27/27 43/12/12
f 45/13/13 53/39/39 48/38/38
f 18/41/41 19/3/3 26/2/2
f 56/42/42 52/40/40 57/43/43
f 52/40/40 58/44/44 57/43/43
f 53/39/39 4/45/45 58/44/44
f 54/27/27 59/46/46 5/47/47
f 55/28/28 60/48/48 59/46/46
f 21/4/4 14/49/49 22/10/10
f 61/50/50 50/24/24 56/42/42
f 25/9/9 18/41/41 26/2/2
f 23/31/31 14/49/49 15/51/51
f 30/11/11 36/14/14 35/36/36
f 42/37/37 45/13/13 48/38/38
f 36/14/14 22/10/10 31/34/34
f 40/16/16 29/7/7 38/21/21
f 31/34/34 43/12/12 36/14/14
f 38/21/21 46/25/25 40/16/16
f 51/26/26 61/50/50 60/48/48
f 33/35/35 39/20/20 38/21/21
f 4/45/45 54/27/27 5/47/47
f 11/29/29 12/52/52 20/6/6
f 20/6/6 12/52/52 13/30/30
f 23/31/31 15/51/51 16/32/32
f 16/32/32 17/53/53 25/9/9
f 19/3/3 20/6/6 28/5/5
f 23/31/31 24/8/8 32/33/33
f 28/5/5 34/15/15 33/35/35
f 38/21/21 39/20/20 44/19/19
f 35/36/36 42/37/37 41/18/18
f 33/35/35 38/21/21 26/2/2
f 41/18/18 42/37/37 48/38/38
f 47/23/23 48/38/38 53/39/39
f 49/22/22 55/28/28 54/27/27
f 18/41/41 11/29/29 19/3/3
f 56/42/42 50/24/24 52/40/40
f 52/40/40 53/39/39 58/44/44
f 53/39/39 45/13/13 4/45/45
f 54/27/27 55/28/28 59/46/46
f 55/28/28 51/26/26 60/48/48
f 21/4/4 13/30/30 14/49/49
f 61/50/50 46/25/25 50/24/24
f 25/9/9 17/53/53 18/41/41
f 23/31/31 22/10/10 14/49/49
f 30/11/11 22/10/10 36/14/14
f 42/37/37 36/14/14 45/13/13
f 51/26/26 46/25/25 61/50/50
f 4/45/45 45/13/13 54/27/27
s 2
f 15/51/54 13/30/54 11/29/54
f 11/29/54 18/41/54 15/51/54
f 17/53/54 16/32/54 15/51/54
f 15/51/54 14/49/54 13/30/54
f 13/30/54 12/52/54 11/29/54
f 18/41/54 17/53/54 15/51/54
s 3
f 89/54/1 88/55/55 81/56/3
f 83/57/4 90/58/5 82/59/6
f 91/60/7 86/61/8 87/62/9
f 84/63/10 92/64/11 83/57/4
f 105/65/12 107/66/13 98/67/14
f 92/64/11 96/68/15 90/58/5
f 102/69/16 99/70/17 91/60/7
f 103/71/18 106/72/56 101/73/20
f 100/74/21 91/60/7 88/55/55
f 111/75/22 105/65/12 99/70/17
f 102/69/16 111/75/22 99/70/17
f 109/76/23 112/77/24 106/72/56
f 108/78/25 113/79/26 102/69/16
f 116/80/27 107/66/13 105/65/12
f 113/79/26 117/81/28 111/75/22
f 123/82/50 112/77/24 118/83/42
f 83/57/4 76/84/49 84/63/10
f 113/79/26 123/82/50 122/85/48
f 87/62/9 80/86/41 88/55/55
f 100/74/21 108/78/25 102/69/16
f 104/87/37 107/66/13 110/88/57
f 85/89/31 76/84/49 77/90/51
f 102/69/16 91/60/7 100/74/21
f 104/87/37 97/91/36 98/67/14
f 92/64/11 98/67/14 97/91/36
f 65/92/45 116/80/27 66/93/47
f 80/86/41 81/56/3 88/55/55
f 73/94/29 82/59/6 81/56/3
f 82/59/6 75/95/30 83/57/4
f 85/89/31 78/96/32 86/61/8
f 78/96/32 87/62/9 86/61/8
f 81/56/3 90/58/5 89/54/1
f 85/89/31 94/97/33 93/98/34
f 88/55/55 91/60/7 87/62/9
f 83/57/4 92/64/11 90/58/5
f 85/89/31 93/98/34 84/63/10
f 90/58/5 95/99/35 89/54/1
f 91/60/7 94/97/33 86/61/8
f 97/91/36 103/71/18 96/68/15
f 92/64/11 97/91/36 96/68/15
f 94/97/33 99/70/17 93/98/34
f 91/60/7 99/70/17 94/97/33
f 96/68/15 101/73/20 95/99/35
f 93/98/34 105/65/12 98/67/14
f 95/99/35 101/73/20 100/74/21
f 96/68/15 103/71/18 101/73/20
f 100/74/21 106/72/56 108/78/25
f 99/70/17 105/65/12 93/98/34
f 98/67/14 84/63/10 93/98/34
f 103/71/18 110/88/57 109/76/23
f 103/71/18 109/76/23 106/72/56
f 109/76/23 115/100/39 114/101/58
f 106/72/56 112/77/24 108/78/25
f 102/69/16 113/79/26 111/75/22
f 109/76/23 114/101/58 112/77/24
f 111/75/22 116/80/27 105/65/12
f 107/66/13 115/100/39 110/88/57
f 95/99/35 88/55/55 89/54/1
f 118/83/42 114/101/58 119/102/43
f 114/101/58 120/103/44 119/102/43
f 115/100/39 65/92/45 120/103/44
f 116/80/27 121/104/46 66/93/47
f 117/81/28 122/85/48 121/104/46
f 123/82/50 108/78/25 112/77/24
f 83/57/4 75/95/30 76/84/49
f 113/79/26 108/78/25 123/82/50
f 87/62/9 79/105/53 80/86/41
f 104/87/37 98/67/14 107/66/13
f 85/89/31 84/63/10 76/84/49
f 92/64/11 84/63/10 98/67/14
f 65/92/45 107/66/13 116/80/27
f 80/86/41 73/94/29 81/56/3
f 73/94/29 74/106/52 82/59/6
f 82/59/6 74/106/52 75/95/30
f 85/89/31 77/90/51 78/96/32
f 78/96/32 79/105/53 87/62/9
f 81/56/3 82/59/6 90/58/5
f 85/89/31 86/61/8 94/97/33
f 90/58/5 96/68/15 95/99/35
f 97/91/36 104/87/37 103/71/18
f 100/74/21 101/73/20 106/72/56
f 103/71/18 104/87/37 110/88/57
f 109/76/23 110/88/57 115/100/39
f 111/75/22 117/81/28 116/80/27
f 95/99/35 100/74/21 88/55/55
f 118/83/42 112/77/24 114/101/58
f 114/101/58 115/100/39 120/103/44
f 115/100/39 107/66/13 65/92/45
f 116/80/27 117/81/28 121/104/46
f 117/81/28 113/79/26 122/85/48
s 4
f 2/107/59 56/42/60 57/43/61
f 61/50/62 56/42/60 1/108/63
f 4/45/64 2/107/59 58/44/65
f 2/107/59 57/43/61 58/44/65
f 6/109/66 5/47/67 59/46/68
f 3/110/69 4/45/64 5/47/67
f 1/108/63 60/48/70 61/50/62
f 59/46/68 60/48/70 6/109/66
f 3/110/69 1/108/63 2/107/59
f 2/107/59 1/108/63 56/42/60
f 4/45/64 3/110/69 2/107/59
f 6/109/66 3/110/69 5/47/67
f 1/108/63 6/109/66 60/48/70
f 3/110/69 6/109/66 1/108/63
s 5
f 17/53/71 10/111/72 18/112/73
f 8/113/74 16/32/75 15/51/76
f 17/53/71 16/32/75 7/114/77
f 9/115/78 14/49/79 13/30/80
f 15/51/76 14/49/79 8/113/74
f 11/29/81 9/116/78 12/52/82
f 13/30/80 12/52/82 9/116/78
f 8/113/74 10/111/72 7/114/77
f 10/117/72 11/29/81 18/41/73
f 17/53/71 7/114/77 10/111/72
f 8/113/74 7/114/77 16/32/75
f 9/115/78 8/113/74 14/49/79
f 11/29/81 10/117/72 9/116/78
f 8/113/74 9/115/78 10/111/72
s 6
f 61/50/83 56/42/84 4/45/85
f 58/44/86 4/45/85 57/43/87
f 5/47/88 59/46/89 60/48/90
f 60/48/90 61/50/83 4/45/85
f 56/42/84 57/43/87 4/45/85
f 4/45/85 5/47/88 60/48/90
s 7
f 63/118/59 118/83/60 119/102/61
f 123/82/62 118/83/60 62/119/63
f 65/92/64 63/118/59 120/103/65
f 63/118/59 119/102/61 120/103/65
f 67/120/66 66/93/67 121/104/68
f 64/121/69 65/92/64 66/93/67
f 62/119/63 122/85/70 123/82/62
f 121/104/68 122/85/70 67/120/66
f 64/121/69 62/119/63 63/118/59
f 63/118/59 62/119/63 118/83/60
f 65/92/64 64/121/69 63/118/59
f 67/120/66 64/121/69 66/93/67
f 62/119/63 67/120/66 122/85/70
f 64/121/69 67/120/66 62/119/63
s 8
f 79/105/71 72/122/91 80/123/73
f 69/124/92 78/96/93 77/90/94
f 68/125/95 79/105/71 78/96/93
f 69/124/92 76/84/96 70/126/97
f 71/127/98 75/95/99 74/106/100
f 76/84/96 75/95/99 70/126/97
f 73/94/101 71/127/98 74/106/100
f 72/128/91 73/94/101 80/86/73
f 68/125/95 69/124/92 71/129/98
f 79/105/71 68/125/95 72/122/91
f 69/124/92 68/125/95 78/96/93
f 69/124/92 77/90/94 76/84/96
f 71/127/98 70/130/97 75/95/99
f 73/94/101 72/128/91 71/127/98
f 70/126/97 71/129/98 69/124/92
f 72/122/91 68/125/95 71/129/98
s 9
f 123/82/83 118/83/84 65/92/85
f 120/103/86 65/92/85 119/102/87
f 66/93/88 121/104/89 122/85/90
f 122/85/90 123/82/83 65/92/85
f 118/83/84 119/102/87 65/92/85
f 65/92/85 66/93/88 122/85/90
s 10
f 149/131/102 126/132/103 152/133/104
f 125/134/105 150/135/106 128/136/107
f 124/137/108 148/138/109 125/134/105
f 150/135/106 126/132/103 128/136/107
f 149/131/102 124/137/108 126/132/103
f 125/134/105 148/138/109 150/135/106
f 124/137/108 149/131/102 148/138/109
f 150/135/106 152/133/104 126/132/103
s 11
f 77/90/54 75/95/54 79/105/54
f 73/94/54 80/86/54 79/105/54
f 79/105/54 78/96/54 77/90/54
f 77/90/54 76/84/54 75/95/54
f 75/95/54 74/106/54 73/94/54
f 73/94/54 79/105/54 75/95/54
s 12
f 153/139/102 130/140/103 156/141/104
f 129/142/105 154/143/106 132/144/107
f 127/145/110 151/146/111 129/142/105
f 154/143/106 130/140/103 132/144/107
f 153/139/102 127/145/110 130/140/103
f 129/142/105 151/146/111 154/143/106
f 127/145/110 153/139/102 151/146/111
f 154/143/106 156/141/104 130/140/103
s 13
f 157/147/102 134/148/103 160/149/104
f 133/150/105 158/151/106 136/152/107
f 131/153/110 155/154/111 133/150/105
f 158/151/106 134/148/103 136/152/107
f 157/147/102 131/153/110 134/148/103
f 133/150/105 155/154/111 158/151/106
f 131/153/110 157/147/102 155/154/111
f 158/151/106 160/149/104 134/148/103
s 14
f 161/155/102 138/156/103 164/157/104
f 137/158/112 162/159/106 140/160/107
f 135/161/110 159/162/111 137/158/112
f 162/159/106 138/156/103 140/160/107
f 161/155/102 135/161/110 138/156/103
f 137/158/112 159/162/111 162/159/106
f 135/161/110 161/155/102 159/162/111
f 162/159/106 164/157/104 138/156/103
s 15
f 165/163/102 142/164/103 168/165/104
f 141/166/105 166/167/106 144/168/107
f 139/169/110 163/170/111 141/166/105
f 166/167/106 142/164/103 144/168/107
f 165/163/102 139/169/110 142/164/103
f 141/166/105 163/170/111 166/167/106
f 139/169/110 165/163/102 163/170/111
f 166/167/106 168/165/104 142/164/103
s 16
f 169/171/102 146/172/103 171/173/113
f 145/174/112 170/175/106 147/176/114
f 143/177/110 167/178/111 145/174/112
f 170/175/106 146/172/103 147/176/114
f 169/171/102 143/177/110 146/172/103
f 145/174/112 167/178/111 170/175/106
f 143/177/110 169/171/102 167/178/111
f 170/175/106 171/173/113 146/172/103
