# Blender v2.92.0 OBJ File: 'soy.blend'
# www.blender.org
mtllib chair3.mtl
o Chair_Cube.001
v 12.000001 0.000000 11.999999
v -11.999999 0.000000 12.000001
v 11.999999 0.000000 -12.000001
v -12.000001 0.000000 -11.999999
v 10.015535 20.581669 9.508004
v 12.000000 0.000000 -9.508005
v -12.000000 0.000000 -9.508003
v -12.000000 0.000000 9.508005
v 12.000000 0.000000 9.508003
v -10.015536 0.000000 -12.000000
v -10.015534 0.000000 12.000000
v -10.015535 0.000000 -9.508004
v -10.015535 0.000000 9.508004
v 10.015536 0.000000 12.000000
v 10.015534 0.000000 -12.000000
v 10.015535 0.000000 -9.508004
v 10.015535 0.000000 9.508004
v 12.000001 21.830837 11.999999
v -11.999999 21.830837 12.000001
v -12.000001 21.830837 -11.999999
v 11.999999 21.830837 -12.000001
v 12.000000 21.830837 -9.508005
v -12.000000 21.830837 -9.508003
v -12.000000 21.830837 9.508005
v 12.000000 21.830837 9.508003
v -10.015536 21.830837 -12.000000
v -10.015534 21.830837 12.000000
v 10.015536 21.830837 12.000000
v 10.015534 21.830837 -12.000000
v -10.015535 21.830837 -9.508004
v 10.015535 21.830837 -9.508004
v 10.015535 21.830837 9.508004
v -10.015535 21.830837 9.508004
v 10.015536 20.581669 12.000000
v -10.015536 20.581669 -12.000000
v 10.015534 20.581669 -12.000000
v -10.015534 20.581669 12.000000
v 12.000000 20.581669 -9.508005
v 12.000000 20.581669 9.508003
v -12.000000 20.581669 9.508005
v -12.000000 20.581669 -9.508003
v -10.015535 20.581669 9.508004
v -10.015535 20.581669 -9.508004
v 10.015535 20.581669 -9.508004
v 13.140436 21.716206 13.000000
v 13.140436 24.091516 13.000000
v -14.777555 25.715599 13.000000
v -14.777558 25.715557 -13.000000
v 13.140433 24.124302 -13.000000
v -12.157361 21.716206 13.000000
v -12.157364 21.716206 -13.000000
v 13.140433 21.716206 -13.000000
v -12.637122 25.731949 -13.000000
v -12.637119 25.715599 13.000000
v -16.899395 53.114292 13.000001
v -16.899395 53.114250 -13.000000
v -14.842107 53.587467 12.999999
v -14.847975 53.602734 -13.000000
v -13.075690 28.203453 -13.000000
v -13.079073 28.187456 13.000000
v -15.173377 28.629448 13.000000
v -15.173380 28.629406 -13.000000
v -11.807652 34.622639 -13.000000
v -13.899355 35.077103 13.000000
v -11.811251 34.606689 13.000000
v -13.899358 35.077061 -13.000000
v -12.120577 43.986256 -13.000000
v -14.220745 43.572754 13.000000
v -12.117530 43.970192 13.000000
v -14.220748 43.572701 -13.000000
v -10.913248 24.012295 -13.000000
v -10.913245 23.987705 13.000000
v 14.564523 20.917274 13.000000
v 15.947972 22.283012 13.000000
v 15.973795 22.303209 -13.000000
v 14.564520 20.917274 -13.000000
v 15.895733 15.976000 13.000000
v 17.503956 16.205511 13.000000
v 17.532211 16.222139 -13.000000
v 15.895730 15.976000 -13.000000
vt 0.677087 0.600899
vt 0.322329 0.582388
vt 0.322329 0.600899
vt 0.677087 0.582388
vt 0.723577 0.395541
vt 0.677087 0.395541
vt 0.723577 0.395541
vt 0.677087 0.377030
vt 0.677087 0.395541
vt 0.275839 0.582388
vt 0.322329 0.395541
vt 0.275839 0.395541
vt 0.322329 0.552060
vt 0.275839 0.540408
vt 0.275839 0.552060
vt 0.322329 0.395541
vt 0.275839 0.377030
vt 0.275839 0.395541
vt 0.322329 0.600899
vt 0.275839 0.582388
vt 0.275839 0.600899
vt 0.701798 0.552060
vt 0.664776 0.540408
vt 0.664776 0.552060
vt 0.723577 0.600899
vt 0.677087 0.582388
vt 0.677087 0.600899
vt 0.291081 0.552060
vt 0.664776 0.540408
vt 0.664776 0.552060
vt 0.322329 0.377030
vt 0.677087 0.552060
vt 0.723577 0.540408
vt 0.723577 0.552060
vt 0.291081 0.552060
vt 0.254060 0.540408
vt 0.254060 0.552060
vt 0.254060 0.552060
vt 0.291081 0.348425
vt 0.254060 0.348425
vt 0.701798 0.552060
vt 0.664776 0.348425
vt 0.701798 0.348425
vt 0.275839 0.552060
vt 0.322329 0.348425
vt 0.275839 0.348425
vt 0.723577 0.552060
vt 0.677087 0.348425
vt 0.723577 0.348425
vt 0.322329 0.552060
vt 0.275839 0.348425
vt 0.322329 0.348425
vt 0.254060 0.348425
vt 0.291081 0.348425
vt 0.677087 0.552060
vt 0.723577 0.348425
vt 0.677087 0.348425
vt 0.664776 0.552060
vt 0.701798 0.348425
vt 0.664776 0.348425
vt 0.322329 0.540408
vt 0.322329 0.552060
vt 0.275839 0.552060
vt 0.322329 0.540408
vt 0.322329 0.552060
vt 0.723577 0.552060
vt 0.677087 0.540408
vt 0.677087 0.552060
vt 0.723577 0.348425
vt 0.701798 0.348425
vt 0.664776 0.552060
vt 0.701798 0.552060
vt 0.701798 0.348425
vt 0.322329 0.348425
vt 0.275839 0.348425
vt 0.322329 0.348425
vt 0.275839 0.348425
vt 0.291081 0.348425
vt 0.254060 0.348425
vt 0.291081 0.552060
vt 0.254060 0.348425
vt 0.254060 0.552060
vt 0.723577 0.348425
vt 0.677087 0.348425
vt 0.291081 0.540408
vt 0.701798 0.540408
vt 0.291081 0.540408
vt 0.291081 0.552060
vt 0.677087 0.540408
vt 0.677087 0.552060
vt 0.723577 0.582388
vt 0.723577 0.377030
vt 0.322329 0.540408
vt 0.322329 0.377030
vt 0.322329 0.582388
vt 0.701798 0.540408
vt 0.723577 0.582388
vt 0.291081 0.540408
vt 0.677087 0.377030
vt 0.677087 0.540408
vt 0.291081 0.540408
vt 0.275839 0.552060
vt 0.254060 0.552060
vt 0.723577 0.552060
vt 0.701798 0.552060
vt 0.677087 0.540408
vt 0.275839 0.540408
vt 0.723577 0.540408
vt 0.677087 0.348425
vt 0.664776 0.348425
vt 0.664776 0.348425
vt 0.291081 0.348425
vt 0.664776 0.540408
vt 0.664776 0.540408
vt 0.254060 0.540408
vt 0.322329 0.540408
vt 0.751029 0.168901
vt 0.818129 0.168901
vt 0.849974 0.138194
vt 0.857350 0.881287
vt 0.154566 1.138021
vt 0.154602 0.880856
vt 0.677087 0.600899
vt 0.255351 0.602367
vt 0.745640 0.602367
vt 0.238996 0.761700
vt 0.751029 0.222336
vt 0.238996 0.222336
vt 0.601562 0.539062
vt 0.460938 0.468750
vt 0.609375 0.484375
vt 0.445312 0.515625
vt 0.437500 0.460938
vt 0.866218 0.514389
vt 0.142325 0.406700
vt 0.158569 0.514389
vt 0.328125 0.554688
vt 0.328125 0.492188
vt 0.351562 0.500000
vt 0.818129 0.222336
vt 0.849974 0.819372
vt 0.171896 0.222336
vt 0.171896 0.168901
vt 0.142325 0.138194
vt 0.238996 0.168901
vt 0.142325 0.819372
vt 0.171896 0.761700
vt 0.818129 0.761700
vt 0.818129 0.815135
vt 0.723577 0.600899
vt 0.171896 0.815135
vt 0.322329 0.600899
vt 0.275839 0.600899
vt 0.849389 0.691149
vt 0.154706 0.737245
vt 0.146640 0.691149
vt 0.601562 0.476562
vt 0.398438 0.523438
vt 0.398438 0.476562
vt 0.158464 0.995218
vt 0.866077 1.252137
vt 0.866113 0.995218
vt 0.492188 0.710938
vt 0.554688 0.804688
vt 0.492188 0.796875
vt 0.585938 0.554688
vt 0.726562 0.640625
vt 0.742188 0.562500
vt 0.320312 0.546875
vt 0.335938 0.625000
vt 0.359375 0.554688
vt 0.625000 0.484375
vt 0.632812 0.546875
vt 0.617188 0.546875
vt 0.866199 0.592848
vt 0.857454 0.393168
vt 0.154687 0.458827
vt 0.154706 0.392730
vt 0.429688 0.632812
vt 0.453125 0.554688
vt 0.406250 0.695312
vt 0.437500 0.789062
vt 0.398438 0.781250
vt 0.158550 0.592848
vt 0.866163 0.766460
vt 0.857436 0.459256
vt 0.154652 0.630477
vt 0.578125 0.632812
vt 0.445312 0.703125
vt 0.158514 0.766460
vt 0.857400 0.630904
vt 0.138575 0.047955
vt 0.841323 0.047955
vt 0.406250 0.507812
vt 0.406250 0.460938
vt 0.142325 0.099848
vt 0.841323 -0.027809
vt 0.617188 0.500000
vt 0.640625 0.554688
vt 0.617188 0.570312
vt 0.421875 0.484375
vt 0.578125 0.523438
vt 0.578125 0.476562
vt 0.138575 0.300943
vt 0.841323 0.138875
vt 0.841323 0.301483
vt 0.648438 0.500000
vt 0.703125 0.546875
vt 0.142325 0.385187
vt 0.849974 0.252137
vt 0.142325 0.252137
vt 0.857314 1.138431
vt 0.751029 0.761700
vt 0.460938 0.515625
vt 0.849974 0.406700
vt 0.367188 0.570312
vt 0.857454 0.737245
vt 0.601562 0.523438
vt 0.158428 1.252137
vt 0.554688 0.718750
vt 0.304688 0.625000
vt 0.640625 0.484375
vt 0.849974 0.099848
vt 0.138575 -0.027118
vt 0.421875 0.523438
vt 0.138575 0.138431
vt 0.703125 0.500000
vt 0.849974 0.385187
vn 0.0000 -1.0000 0.0000
vn -1.0000 0.0000 0.0000
vn 0.0000 0.0000 1.0000
vn 0.0000 0.0000 -1.0000
vn 1.0000 0.0000 -0.0000
vn -0.1000 -0.9950 0.0000
vn 0.9621 0.2726 0.0001
vn 0.5888 -0.8083 -0.0000
vn -0.8365 -0.5480 0.0000
vn 0.0000 -0.9935 0.1139
vn 0.0000 -0.9935 -0.1139
vn 0.7079 0.7063 0.0007
vn -0.2241 0.9746 0.0006
vn -0.9628 -0.2703 0.0000
vn -0.9909 -0.1346 0.0000
vn 0.9844 0.1760 0.0001
vn -0.9810 0.1938 -0.0000
vn 0.9810 -0.1938 0.0000
vn -0.9993 -0.0378 0.0000
vn 0.9995 0.0327 0.0002
vn -0.0047 1.0000 0.0013
vn -0.4893 -0.8721 0.0000
vn 0.5407 0.8412 0.0011
vn 0.1487 -0.9889 -0.0005
vn 0.9687 0.2483 0.0012
vn -0.9656 -0.2601 0.0000
vn 0.9621 0.2729 -0.0001
vn 0.7062 0.7080 0.0004
vn -0.2316 0.9728 -0.0000
vn 0.9846 0.1747 0.0002
vn 0.9994 0.0334 -0.0001
vn -0.0043 1.0000 0.0009
vn 0.5415 0.8407 0.0012
vn 0.1413 -0.9900 -0.0000
vn 0.9688 0.2480 0.0012
usemtl Shawn2
s off
f 41/1/1 42/2/1 40/3/1
f 43/4/1 36/5/1 44/6/1
f 15/7/1 6/8/1 16/9/1
f 37/10/1 5/11/1 34/12/1
f 33/13/2 37/14/2 27/15/2
f 17/16/1 1/17/1 14/18/1
f 8/19/1 11/20/1 2/21/1
f 24/22/3 42/23/3 33/24/3
f 4/25/1 12/26/1 7/27/1
f 29/28/4 35/29/4 26/30/4
f 44/6/1 39/31/1 5/11/1
f 31/32/5 36/33/5 29/34/5
f 32/35/3 39/36/3 25/37/3
f 18/38/3 14/39/3 1/40/3
f 20/41/4 10/42/4 4/43/4
f 19/44/2 8/45/2 2/46/2
f 21/47/5 6/48/5 3/49/5
f 25/50/5 1/51/5 9/52/5
f 29/28/4 3/53/4 15/54/4
f 23/55/2 4/56/2 7/57/2
f 27/58/3 2/59/3 11/60/3
f 23/55/2 40/61/2 24/62/2
f 28/63/5 5/64/5 32/65/5
f 26/66/2 43/67/2 30/68/2
f 30/68/5 10/69/5 26/66/5
f 7/70/3 30/71/3 23/72/3
f 33/24/4 8/73/4 24/22/4
f 13/74/5 27/15/5 11/75/5
f 28/63/2 17/76/2 14/77/2
f 17/78/4 25/37/4 9/79/4
f 31/80/3 6/81/3 22/82/3
f 31/32/2 15/83/2 16/84/2
f 30/71/3 44/85/3 31/80/3
f 30/71/4 41/86/4 23/72/4
f 27/58/3 34/87/3 28/88/3
f 22/82/4 44/85/4 31/80/4
f 31/32/2 5/64/2 32/65/2
f 25/50/5 38/89/5 22/90/5
f 33/13/5 43/67/5 30/68/5
f 32/35/4 42/23/4 33/24/4
f 41/1/1 43/4/1 42/2/1
f 43/4/1 35/91/1 36/5/1
f 15/7/1 3/92/1 6/8/1
f 37/10/1 42/2/1 5/11/1
f 33/13/2 42/93/2 37/14/2
f 17/16/1 9/94/1 1/17/1
f 8/19/1 13/95/1 11/20/1
f 24/22/3 40/96/3 42/23/3
f 4/25/1 10/97/1 12/26/1
f 29/28/4 36/98/4 35/29/4
f 44/6/1 38/99/1 39/31/1
f 31/32/5 44/100/5 36/33/5
f 32/35/3 5/101/3 39/36/3
f 18/38/3 28/88/3 14/39/3
f 20/41/4 26/30/4 10/42/4
f 19/44/2 24/62/2 8/45/2
f 21/47/5 22/90/5 6/48/5
f 25/50/5 18/102/5 1/51/5
f 29/28/4 21/103/4 3/53/4
f 23/55/2 20/104/2 4/56/2
f 27/58/3 19/105/3 2/59/3
f 23/55/2 41/106/2 40/61/2
f 28/63/5 34/107/5 5/64/5
f 26/66/2 35/108/2 43/67/2
f 30/68/5 12/109/5 10/69/5
f 7/70/3 12/110/3 30/71/3
f 33/24/4 13/111/4 8/73/4
f 13/74/5 33/13/5 27/15/5
f 28/63/2 32/65/2 17/76/2
f 17/78/4 32/35/4 25/37/4
f 31/80/3 16/112/3 6/81/3
f 31/32/2 29/34/2 15/83/2
f 30/71/3 43/113/3 44/85/3
f 30/71/4 43/113/4 41/86/4
f 27/58/3 37/114/3 34/87/3
f 22/82/4 38/115/4 44/85/4
f 31/32/2 44/100/2 5/64/2
f 25/50/5 39/116/5 38/89/5
f 33/13/5 42/93/5 43/67/5
f 32/35/4 5/101/4 42/23/4
usemtl Wood
f 22/117/6 21/118/6 52/119/6
f 67/120/7 57/121/7 69/122/7
f 23/123/8 50/124/8 51/125/8
f 33/126/1 31/127/1 32/128/1
f 71/129/4 52/130/4 51/131/4
f 52/130/4 75/132/4 76/133/4
f 48/134/9 50/135/9 47/136/9
f 54/137/3 47/138/3 50/139/3
f 29/140/10 51/141/10 52/119/10
f 28/142/11 18/143/11 45/144/11
f 18/143/6 25/145/6 45/144/6
f 28/142/11 50/146/11 27/147/11
f 21/118/10 29/140/10 52/119/10
f 26/148/10 20/149/10 51/141/10
f 20/150/8 23/123/8 51/125/8
f 25/145/6 52/119/6 45/144/6
f 19/151/11 27/147/11 50/146/11
f 24/152/8 19/153/8 50/124/8
f 71/154/12 54/155/12 72/156/12
f 58/157/13 55/158/13 57/159/13
f 68/160/14 56/161/14 70/162/14
f 70/163/4 58/164/4 67/165/4
f 68/166/3 57/167/3 55/168/3
f 47/169/3 60/170/3 61/171/3
f 48/172/4 59/173/4 53/174/4
f 47/136/15 62/175/15 48/134/15
f 53/176/16 60/177/16 54/178/16
f 61/171/3 65/179/3 64/180/3
f 62/181/4 63/182/4 59/183/4
f 61/184/17 66/185/17 62/175/17
f 59/186/18 65/187/18 60/177/18
f 64/180/3 69/188/3 68/166/3
f 66/189/4 67/165/4 63/182/4
f 64/190/19 70/162/19 66/185/19
f 63/191/20 69/122/20 65/187/20
f 71/154/21 46/192/21 49/193/21
f 76/133/4 79/194/4 80/195/4
f 52/119/22 73/196/22 45/144/22
f 46/192/23 75/197/23 49/193/23
f 45/198/3 74/199/3 46/200/3
f 78/201/24 80/202/24 79/203/24
f 74/204/25 79/205/25 75/206/25
f 73/207/3 78/208/3 74/199/3
f 73/209/26 80/210/26 77/211/26
f 67/120/27 58/212/27 57/121/27
f 23/123/8 24/152/8 50/124/8
f 33/126/1 30/213/1 31/127/1
f 51/131/4 48/172/4 53/174/4
f 71/129/4 49/214/4 52/130/4
f 51/131/4 53/174/4 71/129/4
f 52/130/4 49/214/4 75/132/4
f 48/134/9 51/215/9 50/135/9
f 50/139/3 45/198/3 72/216/3
f 45/198/3 46/200/3 72/216/3
f 72/216/3 54/137/3 50/139/3
f 29/140/10 26/148/10 51/141/10
f 28/142/11 45/144/11 50/146/11
f 25/145/6 22/117/6 52/119/6
f 71/154/28 53/217/28 54/155/28
f 58/157/29 56/218/29 55/158/29
f 68/160/14 55/219/14 56/161/14
f 70/163/4 56/220/4 58/164/4
f 68/166/3 69/188/3 57/167/3
f 47/169/3 54/221/3 60/170/3
f 48/172/4 62/222/4 59/173/4
f 47/136/15 61/184/15 62/175/15
f 53/176/30 59/186/30 60/177/30
f 61/171/3 60/170/3 65/179/3
f 62/181/4 66/189/4 63/182/4
f 61/184/17 64/190/17 66/185/17
f 59/186/18 63/191/18 65/187/18
f 64/180/3 65/179/3 69/188/3
f 66/189/4 70/163/4 67/165/4
f 64/190/19 68/160/19 70/162/19
f 63/191/31 67/120/31 69/122/31
f 71/154/32 72/156/32 46/192/32
f 76/133/4 75/132/4 79/194/4
f 52/119/22 76/223/22 73/196/22
f 46/192/33 74/224/33 75/197/33
f 45/198/3 73/207/3 74/199/3
f 78/201/34 77/225/34 80/202/34
f 74/204/35 78/226/35 79/205/35
f 73/207/3 77/227/3 78/208/3
f 73/209/26 76/228/26 80/210/26
