# Blender v2.92.0 OBJ File: 'coin.blend'
# www.blender.org
mtllib coin1.mtl
o Simplify_Cylinder_Cylinder.002
v 1.500000 0.125000 1.500000
v -1.500000 0.125000 -1.500000
v -1.500000 0.125000 1.500000
v 1.500000 -0.125000 -1.500000
v -1.500000 -0.125000 1.500000
v -1.500000 -0.125000 -1.500000
v 1.500000 0.125000 -1.500000
v 1.500000 -0.125000 1.500000
v 0.000000 0.125000 -1.483040
v 0.000000 -0.125000 -1.483040
v 0.569885 -0.125000 -1.370151
v 0.569885 0.125000 -1.370151
v 1.053010 -0.125000 -1.048668
v 1.053010 0.125000 -1.048668
v 1.375823 -0.125000 -0.567535
v 1.375823 0.125000 -0.567535
v 1.489181 -0.125000 -0.000000
v 1.489181 0.125000 0.000000
v 1.375823 -0.125000 0.567535
v 1.375823 0.125000 0.567535
v 1.053010 -0.125000 1.048668
v 1.053010 0.125000 1.048668
v 0.569885 -0.125000 1.370151
v 0.569885 0.125000 1.370151
v 0.000000 -0.125000 1.483040
v 0.000000 0.125000 1.483040
v -0.569885 -0.125000 1.370150
v -0.569885 0.125000 1.370150
v -1.053010 -0.125000 1.048667
v -1.053010 0.125000 1.048667
v -1.375824 -0.125000 0.567534
v -1.375824 0.125000 0.567534
v -1.489181 -0.125000 -0.000001
v -1.489181 0.125000 -0.000001
v -1.375823 -0.125000 -0.567536
v -1.375823 0.125000 -0.567536
v -1.053008 -0.125000 -1.048669
v -1.053008 0.125000 -1.048669
v -0.569883 -0.125000 -1.370151
v -0.569883 0.125000 -1.370151
vt 0.460938 0.027344
vt 0.001000 0.960938
vt 0.001000 0.027344
vt 0.460938 0.960938
vt 0.460938 0.957031
vt 0.925781 0.027344
vt 0.925781 0.957031
vt 0.460938 0.027344
vt 1.000000 0.500000
vt 0.929688 0.234375
vt 1.000000 0.234375
vt 1.000000 0.750000
vt 0.929688 0.500000
vt 0.929688 0.000000
vt 1.000000 0.000000
vt 1.000000 0.984375
vt 0.929688 0.750000
vt 1.000000 0.750000
vt 1.000000 0.984375
vt 0.929688 0.750000
vt 1.000000 0.492188
vt 0.929688 0.234375
vt 1.000000 0.234375
vt 1.000000 0.753906
vt 0.929688 0.492188
vt 1.000000 0.234375
vt 0.929688 0.007812
vt 1.000000 0.007812
vt 1.000000 0.492188
vt 0.929688 0.234375
vt 1.000000 0.753906
vt 0.929688 0.492188
vt 0.929688 0.500000
vt 1.000000 0.500000
vt 1.000000 0.980469
vt 0.929688 0.753906
vt 1.000000 0.234375
vt 0.929688 0.000000
vt 1.000000 0.000000
vt 0.929688 0.234375
vt 1.000000 0.980469
vt 0.929688 0.753906
vt 0.929688 0.007812
vt 1.000000 0.007812
vt 0.929688 0.984375
vt 0.929688 0.984375
vt 0.929688 0.980469
vt 0.929688 0.980469
vn 0.0000 1.0000 0.0000
vn 0.0000 -1.0000 -0.0000
vn -0.0000 0.0000 -1.0000
vn -0.3814 0.0000 -0.9244
vn 0.3814 0.0000 -0.9244
vn -0.7058 0.0000 -0.7085
vn -0.9234 0.0000 -0.3839
vn 0.7058 0.0000 -0.7085
vn 1.0000 -0.0000 -0.0000
vn 0.9234 0.0000 -0.3839
vn 0.9234 -0.0000 0.3839
vn 0.3814 0.0000 0.9244
vn 0.7058 0.0000 0.7085
vn -0.0000 0.0000 1.0000
vn -0.3814 0.0000 0.9244
vn -1.0000 0.0000 -0.0000
vn -0.7058 0.0000 0.7085
vn -0.9234 0.0000 0.3839
usemtl COIN1
s 1
f 1/1/1 2/2/1 3/3/1
f 1/1/1 7/4/1 2/2/1
s 2
f 4/5/2 5/6/2 6/7/2
f 4/5/2 8/8/2 5/6/2
s 3
f 9/9/3 39/10/4 40/11/4
f 12/12/5 10/13/3 9/9/3
f 40/11/4 37/14/6 38/15/6
f 38/16/6 35/17/7 36/18/7
f 14/19/8 11/20/5 12/12/5
f 18/21/9 15/22/10 16/23/10
f 20/24/11 17/25/9 18/21/9
f 24/26/12 21/27/13 22/28/13
f 26/29/14 23/30/12 24/26/12
f 28/31/15 25/32/14 26/29/14
f 36/18/7 33/33/16 34/34/16
f 30/35/17 27/36/15 28/31/15
f 32/37/18 29/38/17 30/39/17
f 34/34/16 31/40/18 32/37/18
f 22/41/13 19/42/11 20/24/11
f 16/23/10 13/43/8 14/44/8
f 9/9/3 10/13/3 39/10/4
f 12/12/5 11/20/5 10/13/3
f 40/11/4 39/10/4 37/14/6
f 38/16/6 37/45/6 35/17/7
f 14/19/8 13/46/8 11/20/5
f 18/21/9 17/25/9 15/22/10
f 20/24/11 19/42/11 17/25/9
f 24/26/12 23/30/12 21/27/13
f 26/29/14 25/32/14 23/30/12
f 28/31/15 27/36/15 25/32/14
f 36/18/7 35/17/7 33/33/16
f 30/35/17 29/47/17 27/36/15
f 32/37/18 31/40/18 29/38/17
f 34/34/16 33/33/16 31/40/18
f 22/41/13 21/48/13 19/42/11
f 16/23/10 15/22/10 13/43/8
