# Blender v2.81 (sub 16) OBJ File: 'container.blend'
# www.blender.org
mtllib containwire.mtl
o Plane.001_Plane.002
v 52.000000 122.000000 64.000000
v 52.000000 250.000000 64.000000
v 52.000000 122.000000 -64.000000
v 52.000000 250.000000 -64.000000
v -50.311760 122.000000 -64.000000
v -50.311760 122.000000 64.000000
v -50.311760 250.000000 64.000000
v -50.311760 250.000000 -64.000000
vt 0.000000 1.000000
vt 1.000000 0.000000
vt 0.000000 0.000000
vt 1.000000 0.000000
vt 0.000000 1.000000
vt 0.000000 0.000000
vt 1.000000 1.000000
vt 1.000000 1.000000
vn 1.0000 0.0000 0.0000
vn -1.0000 0.0000 0.0000
usemtl DIAGSUPP
s off
f 3/1/1 2/2/1 1/3/1
f 7/4/2 5/5/2 6/6/2
f 3/1/1 4/7/1 2/2/1
f 7/4/2 8/8/2 5/5/2
