# Blender v2.92.0 OBJ File: 'lamppostl.blend'
# www.blender.org
mtllib lamppost.mtl
o Cylinder
v 0.000002 285.697327 -3.199097
v 2.430999 64.076981 -3.580059
v 4.049849 63.949600 0.393254
v 2.465018 63.970642 3.331631
v 2.867318 285.685181 -0.000000
v -0.000000 285.697327 3.199097
v -2.430928 64.085724 3.580003
v -2.170534 285.631775 1.617743
v -4.049852 63.949341 -0.393259
v -2.465039 63.967728 -3.331650
v -2.376732 285.636169 -1.289565
vt 0.904533 0.000000
vt 0.749124 1.000000
vt 0.734578 0.000000
vt 0.601174 0.000000
vt 0.500567 1.000000
vt 0.404534 0.000000
vt 0.338659 1.000000
vt 0.234578 0.000000
vt 0.181736 1.000000
vt 0.101174 0.000000
vt 0.454841 0.248604
vt 0.249181 0.474220
vt 0.040774 0.345851
vt 0.044488 1.000000
vt 0.000000 -0.000000
vt 0.975447 1.000000
vt 0.050985 0.125897
vt 0.250819 0.025780
vn 0.5390 0.0034 -0.8423
vn 0.8069 0.5907 0.0004
vn 0.9983 0.0054 0.0578
vn 0.5398 0.0039 0.8418
vn 0.0806 0.5958 0.7991
vn -0.5392 0.0034 0.8421
vn -0.6878 0.6211 0.3757
vn -0.9983 0.0051 -0.0580
vn -0.7244 0.6149 -0.3115
vn -0.5393 0.0034 -0.8421
vn 0.0625 0.5918 -0.8037
usemtl SHAWN2
s 1
f 2/1/1 5/2/2 3/3/3
f 5/2/2 4/4/4 3/3/3
f 6/5/5 7/6/6 4/4/4
f 7/6/6 8/7/7 9/8/8
f 11/9/9 10/10/10 9/8/8
f 5/11/2 1/12/11 11/13/9
f 1/14/11 2/15/1 10/10/10
f 2/1/1 1/16/11 5/2/2
f 5/2/2 6/5/5 4/4/4
f 7/6/6 6/5/5 8/7/7
f 9/8/8 8/7/7 11/9/9
f 11/9/9 1/14/11 10/10/10
f 11/13/9 8/17/7 5/11/2
f 8/17/7 6/18/5 5/11/2
o Cylinder.001
v -0.201398 0.000000 -8.094642
v 0.201409 64.000000 -8.094642
v 3.662643 0.000000 -7.151221
v 3.911170 64.000000 -7.018381
v 6.618554 0.000000 -4.664604
v 6.842343 64.000000 -4.329681
v 7.980878 0.000000 -0.927630
v 8.119945 64.000000 1.031458
v 7.728360 0.000000 2.197128
v 5.866191 0.000000 5.581361
v 6.120494 64.000000 5.205235
v 3.061466 0.000000 7.391037
v 3.662640 64.000000 7.151223
v 0.201402 0.000000 8.094642
v -0.201408 64.000000 8.094642
v -3.662647 0.000000 7.151219
v -3.911173 64.000000 7.018379
v -6.120498 0.000000 5.205231
v -6.299270 64.000000 4.987396
v -7.646557 0.000000 2.466795
v -7.728360 64.000000 2.197127
v -7.978396 0.000000 -1.381659
v -7.980877 64.000000 -0.927638
v -6.618548 64.000000 -4.664612
v -6.299261 0.000000 -4.987407
v -3.911159 0.000000 -7.018387
v -3.662632 64.000000 -7.151227
vt 0.687464 1.000000
vt 0.656250 0.000000
vt 0.730774 0.000000
vt 0.552490 0.000000
vt 0.578125 1.000000
vt 0.457176 1.000000
vt 0.401280 0.000000
vt 0.419067 1.000000
vt 0.337142 1.000000
vt 0.843339 0.000000
vt 0.941101 1.000000
vt 0.833095 1.000000
vt 0.347351 1.000000
vt 0.440308 0.000000
vt 0.662104 0.000000
vt 0.650104 1.000000
vt 0.284058 0.000000
vt 0.328125 1.000000
vt 0.278442 1.000000
vt 0.205933 0.000000
vt 0.200317 1.000000
vt 0.127808 0.000000
vt 0.122192 1.000000
vt 0.050476 1.000000
vt 0.058899 0.000000
vt 0.512024 0.000000
vt 0.503601 1.000000
vt 0.328125 -0.000000
vt 0.574305 11.872219
vt 0.410539 13.018874
vt 0.480138 10.582306
vt 0.687500 1.000000
vt 0.624926 0.000000
vt 0.687500 -0.000000
vt 0.614345 1.000000
vt 0.959530 -9.794790
vt 0.913348 -10.990698
vt 1.080887 -12.021032
vt 0.949524 0.000000
vt 0.355774 0.000000
vt 0.328125 0.000000
vt 0.404396 12.577137
vt 0.412214 12.040925
vt 0.457554 10.824437
vt 0.431812 11.375786
vt 0.514197 10.635015
vt 0.552183 11.210329
vt 0.585309 12.537359
vt 0.576105 13.088705
vt 0.442992 13.298883
vt 0.522086 13.345433
vt 1.085488 -11.600686
vt 1.075563 -10.922447
vt 1.059258 -10.381609
vt 1.039197 -9.928305
vt 1.011696 -9.602742
vt 0.982217 -9.570451
vt 0.934250 -10.312461
vt 0.905064 -11.639914
vt 0.919859 -12.156272
vt 0.966145 -12.356009
vt 1.043084 -12.298841
vn 0.7635 0.6405 0.0822
vn 0.7160 -0.6638 0.2161
vn 0.7416 -0.6631 -0.1011
vn 0.3287 0.6627 0.6729
vn 0.2925 -0.6718 0.6805
vn 0.5520 -0.6564 0.5142
vn -0.6196 0.6539 -0.4340
vn -0.5955 -0.6623 -0.4546
vn -0.7451 -0.6539 -0.1312
vn 0.6199 -0.6538 -0.4339
vn 0.3683 0.6597 -0.6551
vn 0.6563 0.6479 -0.3866
vn 0.5866 0.6606 0.4686
vn -0.0163 0.6538 0.7565
vn 0.0014 -0.6572 0.7537
vn -0.3291 -0.6625 0.6729
vn -0.3546 0.6631 0.6591
vn -0.5682 -0.6660 0.4833
vn -0.5848 0.6660 0.4630
vn -0.7157 -0.6631 0.2192
vn -0.7179 0.6657 0.2037
vn -0.7425 0.6623 -0.0996
vn -0.3402 0.6596 -0.6702
vn -0.3551 -0.6628 -0.6592
vn 0.3401 -0.6597 -0.6702
vn 0.0164 0.6538 -0.7564
vn -0.0164 -0.6538 -0.7565
usemtl binlid_d
s 1
f 19/19/12 20/20/13 18/21/14
f 24/22/15 23/23/16 21/24/17
f 35/25/18 36/26/19 33/27/20
f 16/28/21 15/29/22 17/30/23
f 18/21/14 17/30/23 19/19/12
f 20/31/13 22/32/24 21/24/17
f 23/23/16 26/33/25 25/34/26
f 22/32/24 24/22/15 21/24/17
f 27/35/27 26/36/25 28/37/28
f 29/38/29 28/37/28 30/39/30
f 31/40/31 30/39/30 32/41/32
f 31/40/31 34/42/33 33/43/20
f 36/26/19 38/44/34 37/45/35
f 34/46/33 35/25/18 33/27/20
f 15/47/22 32/48/32 22/49/24
f 14/50/36 13/51/37 15/52/22
f 12/53/38 38/44/34 13/51/37
f 37/54/35 14/55/36 23/56/16
f 16/28/21 14/57/36 15/29/22
f 18/21/14 16/28/21 17/30/23
f 20/31/13 19/58/12 22/32/24
f 23/23/16 24/22/15 26/33/25
f 27/35/27 25/59/26 26/36/25
f 29/38/29 27/35/27 28/37/28
f 31/40/31 29/38/29 30/39/30
f 31/40/31 32/41/32 34/42/33
f 36/26/19 35/25/18 38/44/34
f 30/60/30 28/61/28 24/62/15
f 28/61/28 26/63/25 24/62/15
f 24/62/15 22/49/24 32/48/32
f 22/49/24 19/64/12 17/65/23
f 17/65/23 15/47/22 22/49/24
f 15/47/22 13/66/37 38/67/34
f 32/48/32 38/67/34 34/68/33
f 38/67/34 35/69/18 34/68/33
f 15/47/22 38/67/34 32/48/32
f 32/48/32 30/60/30 24/62/15
f 14/50/36 12/53/38 13/51/37
f 12/53/38 37/45/35 38/44/34
f 23/56/16 25/70/26 27/71/27
f 27/71/27 29/72/29 23/56/16
f 29/72/29 31/73/31 23/56/16
f 31/73/31 33/74/20 36/75/19
f 36/75/19 37/54/35 23/56/16
f 37/54/35 12/76/38 14/55/36
f 14/55/36 16/77/21 18/78/14
f 23/56/16 18/78/14 20/79/13
f 14/55/36 18/78/14 23/56/16
f 20/79/13 21/80/17 23/56/16
f 31/73/31 36/75/19 23/56/16
o Cylinder.002
v -52.506569 299.122437 -1.418882
v 0.254665 280.501984 -1.094074
v -51.224472 302.187408 -0.917072
v 0.186966 280.340118 1.169227
v -51.404221 301.757690 1.297097
v -0.820992 277.930542 1.564081
v -52.434544 299.294617 1.445812
v -1.049433 277.384430 -1.252296
vt 1.000000 1.000000
vt 0.855230 0.500000
vt 1.000000 0.500000
vt 0.833928 1.000000
vt 0.634308 0.500000
vt 0.617157 1.000000
vt 0.416072 0.500000
vt 0.396428 1.000000
vt 0.133083 0.500000
vt 0.111928 1.000000
vn -0.2655 -0.6219 -0.7367
vn 0.2930 0.6901 -0.6618
vn -0.2892 -0.7044 -0.6482
vn 0.3138 0.7593 -0.5700
vn 0.2852 0.6743 0.6811
vn 0.2489 0.6021 0.7586
vn -0.2168 -0.5270 0.8217
vn -0.2595 -0.6099 0.7487
usemtl SHAWN2
s 1
f 39/81/39 40/82/40 46/83/41
f 41/84/42 42/85/43 40/82/40
f 43/86/44 44/87/45 42/85/43
f 45/88/46 46/89/41 44/87/45
f 39/81/39 41/84/42 40/82/40
f 41/84/42 43/86/44 42/85/43
f 43/86/44 45/88/46 44/87/45
f 45/88/46 39/90/39 46/89/41
o Cube
v -76.727600 295.228912 8.197200
v -79.251816 302.971252 0.000000
v -76.727600 295.228912 -8.197200
v -76.427841 303.324921 0.000000
v -51.832397 295.228912 8.197200
v -47.874855 295.228912 0.000000
v -51.832397 295.228912 -8.197200
v -80.685143 295.228912 0.000000
v -73.497322 303.324921 6.069945
v -76.727600 302.274414 8.197200
v -75.640045 302.971252 7.481006
v -73.497322 303.324921 -6.069945
v -76.727600 302.274414 -8.197200
v -75.640045 302.971252 -7.481006
v -55.062675 303.324921 6.069945
v -51.832397 302.274414 8.197200
v -52.919952 302.971252 7.481006
v -55.062675 303.324921 -6.069945
v -51.832397 302.274414 -8.197200
v -52.919952 302.971252 -7.481006
v -80.685143 302.274414 0.000000
v -52.132156 303.324921 0.000000
v -49.308186 302.971252 0.000000
v -47.874855 302.274414 0.000000
vt 0.657439 0.625000
vt 0.842561 0.717561
vt 0.657439 0.717561
vt 0.592561 0.625000
vt 0.375000 0.750000
vt 0.375000 0.625000
vt 0.625000 0.510921
vt 0.592561 0.500000
vt 0.592561 0.125000
vt 0.375000 0.250000
vt 0.375000 0.125000
vt 0.125000 0.625000
vt 0.125000 0.750000
vt 0.592561 0.250000
vt 0.375000 0.500000
vt 0.842561 0.532439
vt 0.875000 0.625000
vt 0.842561 0.625000
vt 0.625000 0.239079
vt 0.625000 0.125000
vt 0.657439 0.532439
vt 0.864079 0.500000
vt 0.625000 0.489079
vt 0.625000 0.260921
vt 0.625000 0.625000
vt 0.625000 0.739079
vt 0.635921 0.750000
vt 0.625000 0.989079
vt 0.592561 0.750000
vt 0.625000 0.760921
vt 0.375000 1.000000
vt 0.625000 0.010921
vt 0.592561 0.000000
vt 0.875000 0.739079
vt 0.125000 0.500000
vt 0.375000 0.000000
vt 0.875000 0.510921
vt 0.635921 0.500000
vt 0.864079 0.750000
vt 0.592561 1.000000
vn 0.0800 0.9968 0.0000
vn -0.0339 0.9927 0.1158
vn 0.0339 0.9927 0.1158
vn 0.8809 0.4733 0.0000
vn 0.4234 -0.6048 0.6745
vn 0.7837 -0.6211 0.0000
vn 0.1567 0.9065 -0.3920
vn 0.4958 0.4412 -0.7480
vn -0.8809 0.4733 0.0000
vn -0.4234 -0.6048 -0.6745
vn -0.7837 -0.6211 0.0000
vn -0.4234 -0.6048 0.6745
vn -0.4958 0.4412 -0.7480
vn 0.4234 -0.6048 -0.6745
vn -0.0339 0.9927 -0.1158
vn -0.3262 0.9453 0.0000
vn -0.0800 0.9968 0.0000
vn -0.1567 0.9065 -0.3920
vn 0.0339 0.9927 -0.1158
vn 0.3262 0.9453 0.0000
vn 0.1567 0.9065 0.3920
vn -0.1567 0.9065 0.3920
vn 0.4958 0.4412 0.7480
vn -0.4958 0.4412 0.7480
usemtl SHAWN2
s 1
f 68/91/47 55/92/48 61/93/49
f 70/94/50 51/95/51 52/96/52
f 66/97/53 70/94/50 65/98/54
f 67/99/55 49/100/56 54/101/57
f 54/102/57 51/95/51 47/103/58
f 59/104/59 53/105/60 49/100/56
f 58/106/61 48/107/62 50/108/63
f 60/109/64 67/99/55 48/110/62
f 64/111/65 60/112/64 58/106/61
f 66/113/53 59/104/59 60/114/64
f 61/93/49 69/115/66 68/91/47
f 63/116/67 70/94/50 69/115/66
f 55/92/48 63/117/67 61/93/49
f 57/118/68 62/119/69 63/120/67
f 62/119/69 47/121/58 51/95/51
f 64/111/65 69/115/66 66/97/53
f 57/122/68 67/99/55 56/123/70
f 55/92/48 48/107/62 57/124/68
f 53/105/60 54/102/57 49/125/56
f 56/123/70 54/101/57 47/126/58
f 65/98/54 52/96/52 53/105/60
f 58/106/61 68/91/47 64/111/65
f 68/91/47 50/108/63 55/92/48
f 70/94/50 62/119/69 51/95/51
f 66/97/53 69/115/66 70/94/50
f 67/99/55 59/104/59 49/100/56
f 54/102/57 52/96/52 51/95/51
f 59/104/59 65/98/54 53/105/60
f 58/106/61 60/127/64 48/107/62
f 60/109/64 59/104/59 67/99/55
f 64/111/65 66/128/53 60/112/64
f 66/113/53 65/98/54 59/104/59
f 61/93/49 63/116/67 69/115/66
f 63/116/67 62/119/69 70/94/50
f 55/92/48 57/129/68 63/117/67
f 57/118/68 56/130/70 62/119/69
f 62/119/69 56/130/70 47/121/58
f 64/111/65 68/91/47 69/115/66
f 57/122/68 48/110/62 67/99/55
f 55/92/48 50/108/63 48/107/62
f 53/105/60 52/96/52 54/102/57
f 56/123/70 67/99/55 54/101/57
f 65/98/54 70/94/50 52/96/52
f 58/106/61 50/108/63 68/91/47
o Cylinder.003
v -76.817032 296.038879 -6.472199
v -52.797230 296.038879 -6.472199
v -76.817032 295.100464 -5.979532
v -52.797230 295.100464 -5.979532
v -76.817032 294.304901 -4.576536
v -52.797230 294.304901 -4.576537
v -76.817032 293.773346 -2.476803
v -52.797230 293.773346 -2.476803
v -76.817032 293.586670 0.000000
v -52.797230 293.586670 0.000000
v -76.817032 293.773346 2.476804
v -52.797230 293.773346 2.476804
v -76.817032 294.304901 4.576536
v -52.797230 294.304901 4.576536
v -76.817032 295.100464 5.979532
v -52.797230 295.100464 5.979532
v -76.817032 296.038879 6.472199
v -52.797230 296.038879 6.472199
v -52.797230 296.977295 5.979533
v -52.797230 297.772858 4.576538
v -76.817032 298.304413 2.476804
v -52.797230 297.772858 -4.576538
v -76.817032 296.977295 -5.979534
v -52.797230 296.977295 -5.979534
vt 1.000000 1.000000
vt 0.937500 -0.000000
vt 1.000000 -0.000000
vt 0.937500 1.000000
vt 0.875000 -0.000000
vt 0.875000 1.000000
vt 0.812500 -0.000000
vt 0.812500 1.000000
vt 0.750000 -0.000000
vt 0.750000 1.000000
vt 0.687500 -0.000000
vt 0.687500 1.000000
vt 0.625000 -0.000000
vt 0.625000 1.000000
vt 0.562500 -0.000000
vt 0.562500 1.000000
vt 0.500000 -0.000000
vt 0.312500 0.125000
vt 0.234375 0.125000
vt 0.234375 0.046875
vt 0.812500 0.015625
vt 0.734375 0.046875
vt 0.765625 0.125000
vt 0.500000 1.000000
vt 0.296875 0.140625
vt 0.281250 0.140625
vt 0.250000 0.140625
vt 0.250000 0.046875
vt 0.281250 0.031250
vt 0.296875 0.046875
vt 0.312500 0.046875
vt 0.328125 0.062500
vt 0.328125 0.093750
vt 0.328125 0.109375
vt 0.796875 0.125000
vt 0.812500 0.125000
vt 0.828125 0.109375
vt 0.843750 0.093750
vt 0.843750 0.078125
vt 0.843750 0.046875
vt 0.828125 0.031250
vt 0.796875 0.015625
vn 0.8106 -0.2722 -0.5184
vn -0.6488 -0.5293 -0.5467
vn -0.8106 -0.2722 -0.5184
vn 0.6488 -0.5293 -0.5467
vn -0.6782 -0.6819 -0.2738
vn 0.6782 -0.6819 -0.2738
vn -0.6882 -0.7161 -0.1167
vn 0.6882 -0.7161 -0.1167
vn -0.6906 -0.7233 0.0000
vn 0.6906 -0.7233 0.0000
vn -0.6882 -0.7161 0.1167
vn 0.6882 -0.7161 0.1167
vn -0.6782 -0.6819 0.2738
vn 0.6782 -0.6819 0.2738
vn -0.6488 -0.5293 0.5467
vn 0.6488 -0.5293 0.5467
vn -0.7143 -0.3253 0.6196
vn 1.0000 0.0000 0.0000
vn -1.0000 0.0000 0.0000
vn 0.8106 -0.2722 0.5184
usemtl liteoran
s 1
f 72/131/71 73/132/72 71/133/73
f 74/134/74 75/135/75 73/132/72
f 76/136/76 77/137/77 75/135/75
f 78/138/78 79/139/79 77/137/77
f 80/140/80 81/141/81 79/139/79
f 82/142/82 83/143/83 81/141/81
f 84/144/84 85/145/85 83/143/83
f 86/146/86 87/147/87 85/145/85
f 76/148/76 92/149/88 90/150/88
f 85/151/85 91/152/89 93/153/89
f 72/131/71 74/134/74 73/132/72
f 74/134/74 76/136/76 75/135/75
f 76/136/76 78/138/78 77/137/77
f 78/138/78 80/140/80 79/139/79
f 80/140/80 82/142/82 81/141/81
f 82/142/82 84/144/84 83/143/83
f 84/144/84 86/146/86 85/145/85
f 86/146/86 88/154/90 87/147/87
f 76/148/76 74/155/74 72/156/71
f 72/156/71 94/157/88 92/149/88
f 90/150/88 89/158/88 88/159/90
f 88/159/90 86/160/86 84/161/84
f 84/161/84 82/162/82 80/163/80
f 80/163/80 78/164/78 76/148/76
f 76/148/76 72/156/71 92/149/88
f 90/150/88 88/159/90 76/148/76
f 88/159/90 84/161/84 76/148/76
f 84/161/84 80/163/80 76/148/76
f 93/153/89 71/165/73 73/166/72
f 73/166/72 75/167/75 93/153/89
f 75/167/75 77/168/77 93/153/89
f 77/168/77 79/169/79 85/151/85
f 79/169/79 81/170/81 85/151/85
f 81/170/81 83/171/83 85/151/85
f 85/151/85 87/172/87 91/152/89
f 93/153/89 77/168/77 85/151/85
