# Blender v2.81 (sub 16) OBJ File: 'lamppostl.blend'
# www.blender.org
mtllib lamppost.mtl
o Cylinder
v 0.000002 285.697327 -3.199097
v 2.430999 64.076981 -3.580059
v 4.049849 63.949600 0.393254
v 2.465018 63.970642 3.331631
v 2.867318 285.685181 -0.000000
v -0.000000 285.697327 3.199097
v -2.430928 64.085724 3.580003
v -2.170534 285.631775 1.617743
v -4.049852 63.949341 -0.393259
v -2.465039 63.967728 -3.331650
v -2.376732 285.636169 -1.289565
vt 0.904533 0.000000
vt 0.749124 1.000000
vt 0.734578 0.000000
vt 0.601174 0.000000
vt 0.500567 1.000000
vt 0.404534 0.000000
vt 0.338659 1.000000
vt 0.234578 0.000000
vt 0.181736 1.000000
vt 0.101174 0.000000
vt 0.454841 0.248604
vt 0.249181 0.474220
vt 0.040774 0.345851
vt 0.044488 1.000000
vt 0.000000 -0.000000
vt 0.975447 1.000000
vt 0.050985 0.125897
vt 0.250819 0.025780
vn 0.5390 0.0034 -0.8423
vn 0.8069 0.5907 0.0004
vn 0.9983 0.0054 0.0578
vn 0.5398 0.0039 0.8418
vn 0.0806 0.5958 0.7991
vn -0.5392 0.0034 0.8421
vn -0.6878 0.6211 0.3757
vn -0.9983 0.0051 -0.0580
vn -0.7244 0.6149 -0.3115
vn -0.5393 0.0034 -0.8421
vn 0.0625 0.5918 -0.8037
usemtl SHAWN2
s 1
f 2/1/1 5/2/2 3/3/3
f 5/2/2 4/4/4 3/3/3
f 6/5/5 7/6/6 4/4/4
f 7/6/6 8/7/7 9/8/8
f 11/9/9 10/10/10 9/8/8
f 5/11/2 1/12/11 11/13/9
f 1/14/11 2/15/1 10/10/10
f 2/1/1 1/16/11 5/2/2
f 5/2/2 6/5/5 4/4/4
f 7/6/6 6/5/5 8/7/7
f 9/8/8 8/7/7 11/9/9
f 11/9/9 1/14/11 10/10/10
f 11/13/9 8/17/7 5/11/2
f 8/17/7 6/18/5 5/11/2
o Cylinder.001
v -0.201398 0.000000 -8.094642
v 0.201409 64.000000 -8.094642
v 3.662643 0.000000 -7.151221
v 3.911170 64.000000 -7.018381
v 6.618554 0.000000 -4.664604
v 6.842343 64.000000 -4.329681
v 7.980878 0.000000 -0.927630
v 8.119945 64.000000 1.031458
v 7.728360 0.000000 2.197128
v 5.866191 0.000000 5.581361
v 6.120494 64.000000 5.205235
v 3.061466 0.000000 7.391037
v 3.662640 64.000000 7.151223
v 0.201402 0.000000 8.094642
v -0.201408 64.000000 8.094642
v -3.662647 0.000000 7.151219
v -3.911173 64.000000 7.018379
v -6.120498 0.000000 5.205231
v -6.299270 64.000000 4.987396
v -7.646557 0.000000 2.466795
v -7.728360 64.000000 2.197127
v -7.978396 0.000000 -1.381659
v -7.980877 64.000000 -0.927638
v -6.618548 64.000000 -4.664612
v -6.299261 0.000000 -4.987407
v -3.911159 0.000000 -7.018387
v -3.662632 64.000000 -7.151227
vt 0.687464 1.000000
vt 0.656250 0.000000
vt 0.730774 0.000000
vt 0.552490 0.000000
vt 0.578125 1.000000
vt 0.457176 1.000000
vt 0.401280 0.000000
vt 0.419067 1.000000
vt 0.337142 1.000000
vt 0.843339 0.000000
vt 0.941101 1.000000
vt 0.833095 1.000000
vt 0.347351 1.000000
vt 0.440308 0.000000
vt 0.662104 0.000000
vt 0.650104 1.000000
vt 0.284058 0.000000
vt 0.328125 1.000000
vt 0.278442 1.000000
vt 0.205933 0.000000
vt 0.200317 1.000000
vt 0.127808 0.000000
vt 0.122192 1.000000
vt 0.050476 1.000000
vt 0.058899 0.000000
vt 0.512024 0.000000
vt 0.503601 1.000000
vt 0.328125 -0.000000
vt 0.574305 11.872219
vt 0.410539 13.018874
vt 0.480138 10.582306
vt 0.687500 1.000000
vt 0.624926 0.000000
vt 0.687500 -0.000000
vt 0.614345 1.000000
vt 0.959530 -9.794790
vt 0.913348 -10.990698
vt 1.080887 -12.021032
vt 0.949524 0.000000
vt 0.355774 0.000000
vt 0.328125 0.000000
vt 0.404396 12.577137
vt 0.412214 12.040925
vt 0.457554 10.824437
vt 0.431812 11.375786
vt 0.514197 10.635015
vt 0.552183 11.210329
vt 0.585309 12.537359
vt 0.576105 13.088705
vt 0.442992 13.298883
vt 0.522086 13.345433
vt 1.085488 -11.600686
vt 1.075563 -10.922447
vt 1.059258 -10.381609
vt 1.039197 -9.928305
vt 1.011696 -9.602742
vt 0.982217 -9.570451
vt 0.934250 -10.312461
vt 0.905064 -11.639914
vt 0.919859 -12.156272
vt 0.966145 -12.356009
vt 1.043084 -12.298841
vn 0.9967 -0.0046 0.0805
vn 0.5422 -0.0019 0.8403
vn -0.9065 -0.0024 -0.4222
vn 0.6760 0.0015 -0.7369
vn 0.9727 0.0050 -0.2318
vn 0.8761 -0.0006 0.4821
vn 0.2389 0.0015 0.9710
vn 0.6207 0.0021 0.7840
vn -0.2786 0.0009 0.9604
vn -0.6479 0.0008 0.7618
vn -0.8901 0.0008 0.4559
vn -0.9963 -0.0006 0.0859
vn -0.6479 0.0009 -0.7618
vn -0.9395 0.0024 -0.3425
vn 0.0000 1.0000 0.0000
vn 0.2786 0.0009 -0.9604
vn -0.2372 0.0015 -0.9715
vn 0.0000 -1.0000 0.0000
vn 0.6437 -0.0009 -0.7652
vn 0.9395 -0.0015 -0.3425
vn 0.9019 0.0024 0.4320
vn 0.2372 0.0014 0.9715
vn -0.2372 -0.0015 0.9715
vn -0.6207 -0.0008 0.7840
vn -0.8735 -0.0008 0.4868
vn -0.9968 -0.0009 0.0805
vn -0.6437 0.0006 -0.7652
vn 0.2372 -0.0015 -0.9715
vn -0.2786 -0.0009 -0.9604
usemtl binlid_d
s off
f 19/19/12 20/20/12 18/21/12
f 24/22/13 23/23/13 21/24/13
f 35/25/14 36/26/14 33/27/14
f 16/28/15 15/29/15 17/30/15
f 18/21/16 17/30/16 19/19/16
f 20/31/17 22/32/17 21/24/17
f 23/23/18 26/33/18 25/34/18
f 22/32/19 24/22/19 21/24/19
f 27/35/20 26/36/20 28/37/20
f 29/38/21 28/37/21 30/39/21
f 31/40/22 30/39/22 32/41/22
f 31/40/23 34/42/23 33/43/23
f 36/26/24 38/44/24 37/45/24
f 34/46/25 35/25/25 33/27/25
f 15/47/26 32/48/26 22/49/26
f 14/50/27 13/51/27 15/52/27
f 12/53/28 38/44/28 13/51/28
f 37/54/29 14/55/29 23/56/29
f 16/28/30 14/57/30 15/29/30
f 18/21/31 16/28/31 17/30/31
f 20/31/32 19/58/32 22/32/32
f 23/23/33 24/22/33 26/33/33
f 27/35/34 25/59/34 26/36/34
f 29/38/35 27/35/35 28/37/35
f 31/40/36 29/38/36 30/39/36
f 31/40/37 32/41/37 34/42/37
f 36/26/38 35/25/38 38/44/38
f 30/60/26 28/61/26 24/62/26
f 28/61/26 26/63/26 24/62/26
f 24/62/26 22/49/26 32/48/26
f 22/49/26 19/64/26 17/65/26
f 17/65/26 15/47/26 22/49/26
f 15/47/26 13/66/26 38/67/26
f 32/48/26 38/67/26 34/68/26
f 38/67/26 35/69/26 34/68/26
f 15/47/26 38/67/26 32/48/26
f 32/48/26 30/60/26 24/62/26
f 14/50/39 12/53/39 13/51/39
f 12/53/40 37/45/40 38/44/40
f 23/56/29 25/70/29 27/71/29
f 27/71/29 29/72/29 23/56/29
f 29/72/29 31/73/29 23/56/29
f 31/73/29 33/74/29 36/75/29
f 36/75/29 37/54/29 23/56/29
f 37/54/29 12/76/29 14/55/29
f 14/55/29 16/77/29 18/78/29
f 23/56/29 18/78/29 20/79/29
f 14/55/29 18/78/29 23/56/29
f 20/79/29 21/80/29 23/56/29
f 31/73/29 36/75/29 23/56/29
o Cylinder.002
v -52.506569 299.122437 -1.418882
v 0.254665 280.501984 -1.094074
v -51.224472 302.187408 -0.917072
v 0.186966 280.340118 1.169227
v -51.404221 301.757690 1.297097
v -0.820992 277.930542 1.564081
v -52.434544 299.294617 1.445812
v -1.049433 277.384430 -1.252296
vt 1.000000 1.000000
vt 0.855230 0.500000
vt 1.000000 0.500000
vt 0.833928 1.000000
vt 0.634308 0.500000
vt 0.617157 1.000000
vt 0.416072 0.500000
vt 0.396428 1.000000
vt 0.133083 0.500000
vt 0.111928 1.000000
vn -0.2655 -0.6219 -0.7367
vn 0.2930 0.6901 -0.6618
vn -0.2892 -0.7044 -0.6482
vn 0.3138 0.7593 -0.5700
vn 0.2852 0.6743 0.6811
vn 0.2489 0.6021 0.7586
vn -0.2168 -0.5270 0.8217
vn -0.2595 -0.6099 0.7487
usemtl SHAWN2
s 1
f 39/81/41 40/82/42 46/83/43
f 41/84/44 42/85/45 40/82/42
f 43/86/46 44/87/47 42/85/45
f 45/88/48 46/89/43 44/87/47
f 39/81/41 41/84/44 40/82/42
f 41/84/44 43/86/46 42/85/45
f 43/86/46 45/88/48 44/87/47
f 45/88/48 39/90/41 46/89/43
o Cube
v -76.727600 295.228912 8.197200
v -79.251816 302.971252 0.000000
v -76.727600 295.228912 -8.197200
v -76.427841 303.324921 0.000000
v -51.832397 295.228912 8.197200
v -47.874855 295.228912 0.000000
v -51.832397 295.228912 -8.197200
v -80.685143 295.228912 0.000000
v -73.497322 303.324921 6.069945
v -76.727600 302.274414 8.197200
v -75.640045 302.971252 7.481006
v -73.497322 303.324921 -6.069945
v -76.727600 302.274414 -8.197200
v -75.640045 302.971252 -7.481006
v -55.062675 303.324921 6.069945
v -51.832397 302.274414 8.197200
v -52.919952 302.971252 7.481006
v -55.062675 303.324921 -6.069945
v -51.832397 302.274414 -8.197200
v -52.919952 302.971252 -7.481006
v -80.685143 302.274414 0.000000
v -52.132156 303.324921 0.000000
v -49.308186 302.971252 0.000000
v -47.874855 302.274414 0.000000
vt 0.657439 0.625000
vt 0.842561 0.717561
vt 0.657439 0.717561
vt 0.592561 0.625000
vt 0.375000 0.750000
vt 0.375000 0.625000
vt 0.625000 0.510921
vt 0.592561 0.500000
vt 0.592561 0.125000
vt 0.375000 0.250000
vt 0.375000 0.125000
vt 0.125000 0.625000
vt 0.125000 0.750000
vt 0.592561 0.250000
vt 0.375000 0.500000
vt 0.842561 0.532439
vt 0.875000 0.625000
vt 0.842561 0.625000
vt 0.625000 0.239079
vt 0.625000 0.125000
vt 0.657439 0.532439
vt 0.864079 0.500000
vt 0.625000 0.489079
vt 0.625000 0.260921
vt 0.625000 0.625000
vt 0.625000 0.739079
vt 0.635921 0.750000
vt 0.625000 0.989079
vt 0.592561 0.750000
vt 0.625000 0.760921
vt 0.375000 1.000000
vt 0.625000 0.010921
vt 0.592561 0.000000
vt 0.875000 0.739079
vt 0.125000 0.500000
vt 0.375000 0.000000
vt 0.875000 0.510921
vt 0.635921 0.500000
vt 0.864079 0.750000
vt 0.592561 1.000000
vn 0.0000 1.0000 0.0000
vn 0.9005 0.0000 0.4348
vn 0.4278 0.8800 -0.2065
vn -0.9005 0.0000 -0.4348
vn 0.0000 -1.0000 0.0000
vn 0.0000 0.0000 -1.0000
vn -0.1240 0.9905 -0.0599
vn -0.4278 0.8800 -0.2066
vn 0.0000 0.9700 -0.2431
vn 0.0000 0.7167 -0.6974
vn 0.1240 0.9905 0.0599
vn 0.4278 0.8800 0.2065
vn 0.0000 0.9700 0.2431
vn 0.0000 0.7167 0.6974
vn 0.0000 0.0000 1.0000
vn 0.1240 0.9905 -0.0599
vn -0.4278 0.8800 0.2065
vn -0.1240 0.9905 0.0599
vn -0.9005 0.0000 0.4348
vn 0.9005 0.0000 -0.4348
vn -0.4278 0.8800 -0.2065
vn -0.4278 0.8800 0.2066
usemtl SHAWN2
s off
f 68/91/49 55/92/49 61/93/49
f 70/94/50 51/95/50 52/96/50
f 66/97/51 70/94/51 65/98/51
f 67/99/52 49/100/52 54/101/52
f 54/102/53 51/95/53 47/103/53
f 59/104/54 53/105/54 49/100/54
f 58/106/55 48/107/55 50/108/55
f 60/109/56 67/99/56 48/110/56
f 64/111/57 60/112/57 58/106/57
f 66/113/58 59/104/58 60/114/58
f 61/93/59 69/115/59 68/91/59
f 63/116/60 70/94/60 69/115/60
f 55/92/61 63/117/61 61/93/61
f 57/118/62 62/119/62 63/120/62
f 62/119/63 47/121/63 51/95/63
f 64/111/64 69/115/64 66/97/64
f 57/122/65 67/99/65 56/123/65
f 55/92/66 48/107/66 57/124/66
f 53/105/53 54/102/53 49/125/53
f 56/123/67 54/101/67 47/126/67
f 65/98/68 52/96/68 53/105/68
f 58/106/49 68/91/49 64/111/49
f 68/91/49 50/108/49 55/92/49
f 70/94/50 62/119/50 51/95/50
f 66/97/51 69/115/51 70/94/51
f 67/99/52 59/104/52 49/100/52
f 54/102/53 52/96/53 51/95/53
f 59/104/54 65/98/54 53/105/54
f 58/106/55 60/127/55 48/107/55
f 60/109/69 59/104/69 67/99/69
f 64/111/57 66/128/57 60/112/57
f 66/113/58 65/98/58 59/104/58
f 61/93/59 63/116/59 69/115/59
f 63/116/60 62/119/60 70/94/60
f 55/92/61 57/129/61 63/117/61
f 57/118/62 56/130/62 62/119/62
f 62/119/63 56/130/63 47/121/63
f 64/111/64 68/91/64 69/115/64
f 57/122/70 48/110/70 67/99/70
f 55/92/66 50/108/66 48/107/66
f 53/105/53 52/96/53 54/102/53
f 56/123/67 67/99/67 54/101/67
f 65/98/68 70/94/68 52/96/68
f 58/106/49 50/108/49 68/91/49
o Cylinder.003
v -76.817032 296.038879 -6.472199
v -52.797230 296.038879 -6.472199
v -76.817032 295.100464 -5.979532
v -52.797230 295.100464 -5.979532
v -76.817032 294.304901 -4.576536
v -52.797230 294.304901 -4.576537
v -76.817032 293.773346 -2.476803
v -52.797230 293.773346 -2.476803
v -76.817032 293.586670 0.000000
v -52.797230 293.586670 0.000000
v -76.817032 293.773346 2.476804
v -52.797230 293.773346 2.476804
v -76.817032 294.304901 4.576536
v -52.797230 294.304901 4.576536
v -76.817032 295.100464 5.979532
v -52.797230 295.100464 5.979532
v -76.817032 296.038879 6.472199
v -52.797230 296.038879 6.472199
v -52.797230 296.977295 5.979533
v -52.797230 297.772858 4.576538
v -76.817032 298.304413 2.476804
v -52.797230 297.772858 -4.576538
v -76.817032 296.977295 -5.979534
v -52.797230 296.977295 -5.979534
vt 1.000000 1.000000
vt 0.937500 -0.000000
vt 1.000000 -0.000000
vt 0.937500 1.000000
vt 0.875000 -0.000000
vt 0.875000 1.000000
vt 0.812500 -0.000000
vt 0.812500 1.000000
vt 0.750000 -0.000000
vt 0.750000 1.000000
vt 0.687500 -0.000000
vt 0.687500 1.000000
vt 0.625000 -0.000000
vt 0.625000 1.000000
vt 0.562500 -0.000000
vt 0.562500 1.000000
vt 0.500000 -0.000000
vt 0.312500 0.125000
vt 0.234375 0.125000
vt 0.234375 0.046875
vt 0.812500 0.015625
vt 0.734375 0.046875
vt 0.765625 0.125000
vt 0.500000 1.000000
vt 0.296875 0.140625
vt 0.281250 0.140625
vt 0.250000 0.140625
vt 0.250000 0.046875
vt 0.281250 0.031250
vt 0.296875 0.046875
vt 0.312500 0.046875
vt 0.328125 0.062500
vt 0.328125 0.093750
vt 0.328125 0.109375
vt 0.796875 0.125000
vt 0.812500 0.125000
vt 0.828125 0.109375
vt 0.843750 0.093750
vt 0.843750 0.078125
vt 0.843750 0.046875
vt 0.828125 0.031250
vt 0.796875 0.015625
vn 0.0000 -0.4648 -0.8854
vn 0.0000 -0.8699 -0.4932
vn -0.0000 -0.9694 -0.2454
vn 0.0000 -0.9972 -0.0752
vn 0.0000 -0.9972 0.0751
vn 0.0000 -0.9694 0.2454
vn 0.0000 -0.8699 0.4933
vn 0.0000 -0.4648 0.8854
vn 1.0000 0.0000 0.0000
vn -1.0000 0.0000 0.0000
vn 0.0000 -0.8699 -0.4933
vn 0.0000 -0.9972 -0.0751
vn 0.0000 -0.9972 0.0752
vn 0.0000 -0.8699 0.4932
usemtl liteoran
s off
f 72/131/71 73/132/71 71/133/71
f 74/134/72 75/135/72 73/132/72
f 76/136/73 77/137/73 75/135/73
f 78/138/74 79/139/74 77/137/74
f 80/140/75 81/141/75 79/139/75
f 82/142/76 83/143/76 81/141/76
f 84/144/77 85/145/77 83/143/77
f 86/146/78 87/147/78 85/145/78
f 76/148/79 92/149/79 90/150/79
f 85/151/80 91/152/80 93/153/80
f 72/131/71 74/134/71 73/132/71
f 74/134/81 76/136/81 75/135/81
f 76/136/73 78/138/73 77/137/73
f 78/138/82 80/140/82 79/139/82
f 80/140/83 82/142/83 81/141/83
f 82/142/76 84/144/76 83/143/76
f 84/144/84 86/146/84 85/145/84
f 86/146/78 88/154/78 87/147/78
f 76/148/79 74/155/79 72/156/79
f 72/156/79 94/157/79 92/149/79
f 90/150/79 89/158/79 88/159/79
f 88/159/79 86/160/79 84/161/79
f 84/161/79 82/162/79 80/163/79
f 80/163/79 78/164/79 76/148/79
f 76/148/79 72/156/79 92/149/79
f 90/150/79 88/159/79 76/148/79
f 88/159/79 84/161/79 76/148/79
f 84/161/79 80/163/79 76/148/79
f 93/153/80 71/165/80 73/166/80
f 73/166/80 75/167/80 93/153/80
f 75/167/80 77/168/80 93/153/80
f 77/168/80 79/169/80 85/151/80
f 79/169/80 81/170/80 85/151/80
f 81/170/80 83/171/80 85/151/80
f 85/151/80 87/172/80 91/152/80
f 93/153/80 77/168/80 85/151/80
