# Blender v2.92.0 OBJ File: 'LiteR.blend'
# www.blender.org
mtllib LiteR.mtl
o LiteR
v 18.000000 0.000000 0.000000
v 18.000000 2.400000 0.000000
v 15.587891 2.399999 9.000000
v 15.587891 -0.000001 9.000000
v 15.587891 0.000001 -9.000000
v 15.587891 2.400002 -9.000000
v 9.000000 0.000003 -15.587891
v 9.000000 2.400003 -15.587891
v 0.000000 0.000003 -18.000000
v 0.000000 2.400003 -18.000000
v -9.000000 0.000003 -15.587891
v -9.000000 2.400003 -15.587891
v -15.587891 0.000001 -9.000000
v -15.587891 2.400002 -9.000000
v -18.000000 0.000000 0.000000
v -18.000000 2.400000 0.000000
v -15.587891 -0.000001 9.000000
v -15.587891 2.399999 9.000000
v -9.000000 -0.000003 15.587891
v -9.000000 2.399997 15.587891
v 0.000000 -0.000003 18.000000
v 0.000000 2.399997 18.000000
v 9.000000 -0.000003 15.587891
v 9.000000 2.399997 15.587891
v 0.000000 -0.000003 16.000000
v 0.000000 1.199997 16.000000
v 8.000000 1.199998 13.855957
v 8.000000 -0.000002 13.855957
v -8.000000 -0.000002 13.855957
v -8.000000 1.199998 13.855957
v -13.855957 -0.000001 8.000000
v -13.855957 1.199999 8.000000
v -16.000000 0.000000 0.000000
v -16.000000 1.200000 0.000000
v -13.855957 0.000001 -8.000000
v -13.855957 1.200001 -8.000000
v -8.000000 0.000002 -13.855957
v -8.000000 1.200002 -13.855957
v 0.000000 0.000003 -16.000000
v 0.000000 1.200003 -16.000000
v 8.000000 0.000002 -13.855957
v 8.000000 1.200002 -13.855957
v 13.855957 0.000001 -8.000000
v 13.855957 1.200001 -8.000000
v 16.000000 0.000000 0.000000
v 16.000000 1.200000 0.000000
v 13.855957 -0.000001 8.000000
v 13.855957 1.199999 8.000000
v 14.721924 -0.787988 8.500000
v 8.500000 -0.787989 14.721924
v -14.721924 -0.787985 -8.500000
v 0.000000 -0.787984 -17.000000
v -17.000000 -0.787987 0.000000
v -14.721924 -0.787988 8.500000
v 0.000000 -0.787989 17.000000
v -8.500000 -0.787989 14.721924
v -8.500000 -0.787984 -14.721924
v 17.000000 -0.787987 0.000000
v 14.721924 -0.787985 -8.500000
v 8.500000 -0.787984 -14.721924
vt 0.070312 -0.984375
vt 0.000000 -1.000000
vt 0.070312 -1.000000
vt 0.070312 -0.984375
vt 0.000000 -1.000000
vt 0.070312 -1.000000
vt 0.070312 -0.984375
vt 0.000000 -1.000000
vt 0.070312 -1.000000
vt 0.070312 -0.984375
vt 0.000000 -1.000000
vt 0.070312 -1.000000
vt 0.070312 -0.984375
vt 0.000000 -1.000000
vt 0.070312 -1.000000
vt 0.070312 -0.984375
vt 0.000000 -1.000000
vt 0.070312 -1.000000
vt 0.070312 -0.984375
vt 0.000000 -1.000000
vt 0.070312 -1.000000
vt 0.070312 -0.984375
vt 0.000000 -1.000000
vt 0.070312 -1.000000
vt 0.070312 -0.984375
vt 0.000000 -1.000000
vt 0.070312 -1.000000
vt 0.070312 -0.984375
vt 0.000000 -1.000000
vt 0.070312 -1.000000
vt 0.070312 -0.984375
vt 0.000000 -1.000000
vt 0.070312 -1.000000
vt 0.070312 -0.984375
vt 0.000000 -1.000000
vt 0.070312 -1.000000
vt 0.062500 -0.992188
vt 0.000000 -1.000000
vt 0.062500 -1.000000
vt 0.062500 -0.992188
vt 0.000000 -1.000000
vt 0.062500 -1.000000
vt 0.062500 -0.992188
vt 0.000000 -1.000000
vt 0.062500 -1.000000
vt 0.062500 -0.992188
vt 0.000000 -1.000000
vt 0.062500 -1.000000
vt 0.062500 -0.992188
vt 0.000000 -1.000000
vt 0.062500 -1.000000
vt 0.062500 -0.992188
vt 0.000000 -1.000000
vt 0.062500 -1.000000
vt 0.062500 -0.992188
vt 0.000000 -1.000000
vt 0.062500 -1.000000
vt 0.062500 -0.992188
vt 0.000000 -1.000000
vt 0.062500 -1.000000
vt 0.062500 -0.992188
vt 0.000000 -1.000000
vt 0.062500 -1.000000
vt 0.062500 -0.992188
vt 0.000000 -1.000000
vt 0.062500 -1.000000
vt 0.062500 -0.992188
vt 0.000000 -1.000000
vt 0.062500 -1.000000
vt 0.062500 -0.992188
vt 0.000000 -1.000000
vt 0.062500 -1.000000
vt 28.816406 -43.865013
vt 28.871780 -43.820309
vt 28.820311 -43.871780
vt 28.750002 -43.882812
vt 28.750000 -43.890629
vt 28.617191 -43.750000
vt 28.628220 -43.679691
vt 28.634989 -43.683594
vt 28.628220 -43.820309
vt 28.609381 -43.750000
vt 28.641750 -43.812500
vt 28.683594 -43.865013
vt 28.634987 -43.816410
vt 28.679689 -43.871780
vt 28.683596 -43.634991
vt 28.625000 -43.750000
vt 28.865015 -43.683594
vt 28.875000 -43.750000
vt 28.858250 -43.687500
vt 28.750000 -43.875000
vt 28.882816 -43.750000
vt 28.890631 -43.750000
vt 28.750002 -43.617188
vt 28.820311 -43.628220
vt 28.816408 -43.634991
vt 28.750000 -43.625000
vt 28.812500 -43.641750
vt 28.871780 -43.679691
vt 28.687500 -43.641750
vt 28.641750 -43.687500
vt 28.865017 -43.816410
vt 28.679689 -43.628220
vt 28.812500 -43.858250
vt 0.000000 -0.984375
vt 0.000000 -0.984375
vt 0.000000 -0.984375
vt 0.000000 -0.984375
vt 0.000000 -0.984375
vt 0.000000 -0.984375
vt 0.000000 -0.984375
vt 0.000000 -0.984375
vt 0.000000 -0.984375
vt 0.000000 -0.984375
vt 0.000000 -0.984375
vt 0.000000 -0.984375
vt 0.000000 -0.992188
vt 0.000000 -0.992188
vt 0.000000 -0.992188
vt 0.000000 -0.992188
vt 0.000000 -0.992188
vt 0.000000 -0.992188
vt 0.000000 -0.992188
vt 0.000000 -0.992188
vt 0.000000 -0.992188
vt 0.000000 -0.992188
vt 0.000000 -0.992188
vt 0.000000 -0.992188
vt 28.687500 -43.858250
vt 28.750000 -43.609379
vt 28.858250 -43.812500
vt 57.750000 -87.500000
vt 57.375000 -87.716499
vt 57.283501 -87.625000
vt 57.283501 -87.375000
vt 57.250000 -87.500000
vt 57.375000 -87.283501
vt 57.500000 -87.250000
vt 57.625000 -87.716499
vt 57.500000 -87.750000
vt 57.625000 -87.283501
vt 57.716499 -87.375000
vt 57.716499 -87.625000
vn 1.0000 0.0000 -0.0000
vn 0.7897 -0.4105 0.4560
vn 0.9119 -0.4105 -0.0000
vn 0.8660 0.0000 -0.5000
vn 0.7897 -0.4105 -0.4560
vn 0.5000 0.0000 -0.8660
vn 0.4560 -0.4105 -0.7897
vn 0.0000 0.0000 -1.0000
vn 0.0000 -0.4105 -0.9119
vn -0.5000 0.0000 -0.8660
vn -0.4560 -0.4105 -0.7897
vn -0.8660 0.0000 -0.5000
vn -0.7897 -0.4105 -0.4560
vn -1.0000 -0.0000 0.0000
vn -0.9119 -0.4105 -0.0000
vn -0.8660 -0.0000 0.5000
vn -0.7897 -0.4105 0.4560
vn -0.5000 0.0000 0.8660
vn -0.4560 -0.4105 0.7897
vn 0.0000 0.0000 1.0000
vn 0.0000 -0.4105 0.9119
vn 0.5000 0.0000 0.8660
vn 0.4560 -0.4105 0.7897
vn 0.8660 0.0000 0.5000
vn -0.4420 -0.4675 -0.7656
vn 0.0000 -0.4675 -0.8840
vn 0.4420 -0.4675 -0.7656
vn 0.7656 -0.4675 -0.4420
vn 0.8840 -0.4675 -0.0000
vn 0.7656 -0.4675 0.4420
vn 0.4420 -0.4675 0.7656
vn 0.0000 -0.4675 0.8840
vn -0.4420 -0.4675 0.7656
vn -0.7656 -0.4675 0.4420
vn -0.8840 -0.4675 -0.0000
vn -0.7656 -0.4675 -0.4420
vn 0.0511 -0.9948 0.0885
vn -0.0000 -0.9948 0.1022
vn -0.1022 -0.9948 -0.0000
vn -0.0885 -0.9948 -0.0511
vn -0.0511 -0.9948 0.0885
vn -0.0885 -0.9948 0.0511
vn -0.0511 -0.9948 -0.0885
vn 0.0885 -0.9948 -0.0511
vn 0.1022 -0.9948 -0.0000
vn 0.0000 -0.9948 -0.1022
vn 0.0511 -0.9948 -0.0885
vn 0.0885 -0.9948 0.0511
vn 0.0000 -1.0000 -0.0000
usemtl BRASS2
s 1
f 2/1/1 4/2/2 1/3/3
f 6/4/4 1/5/3 5/6/5
f 8/7/6 5/8/5 7/9/7
f 10/10/8 7/11/7 9/12/9
f 12/13/10 9/14/9 11/15/11
f 14/16/12 11/17/11 13/18/13
f 16/19/14 13/20/13 15/21/15
f 18/22/16 15/23/15 17/24/17
f 20/25/18 17/26/17 19/27/19
f 22/28/20 19/29/19 21/30/21
f 24/31/22 21/32/21 23/33/23
f 3/34/24 23/35/23 4/36/2
f 26/37/8 28/38/25 25/39/26
f 30/40/6 25/41/26 29/42/27
f 32/43/4 29/44/27 31/45/28
f 34/46/1 31/47/28 33/48/29
f 36/49/24 33/50/29 35/51/30
f 38/52/22 35/53/30 37/54/31
f 40/55/20 37/56/31 39/57/32
f 42/58/18 39/59/32 41/60/33
f 44/61/16 41/62/33 43/63/34
f 46/64/14 43/65/34 45/66/35
f 48/67/12 45/68/35 47/69/36
f 27/70/10 47/71/36 28/72/25
f 50/73/37 4/74/2 23/75/23
f 55/76/38 23/75/23 21/77/21
f 53/78/39 13/79/13 51/80/40
f 53/78/39 17/81/17 15/82/15
f 31/83/28 56/84/41 54/85/42
f 17/81/17 56/84/41 19/86/19
f 13/79/13 57/87/43 51/80/40
f 33/88/29 54/85/42 53/78/39
f 59/89/44 45/90/35 43/91/34
f 56/84/41 25/92/26 55/76/38
f 4/74/2 58/93/45 1/94/3
f 52/95/46 7/96/7 60/97/47
f 39/98/32 60/97/47 41/99/33
f 5/100/5 58/93/45 59/89/44
f 57/87/43 39/98/32 37/101/31
f 60/97/47 5/100/5 59/89/44
f 33/88/29 51/80/40 35/102/30
f 49/103/48 45/90/35 58/93/45
f 51/80/40 37/101/31 35/102/30
f 11/104/11 52/95/46 57/87/43
f 19/86/19 55/76/38 21/77/21
f 25/92/26 50/73/37 55/76/38
f 60/97/47 43/91/34 41/99/33
f 28/105/25 49/103/48 50/73/37
f 2/1/1 3/106/24 4/2/2
f 6/4/4 2/107/1 1/5/3
f 8/7/6 6/108/4 5/8/5
f 10/10/8 8/109/6 7/11/7
f 12/13/10 10/110/8 9/14/9
f 14/16/12 12/111/10 11/17/11
f 16/19/14 14/112/12 13/20/13
f 18/22/16 16/113/14 15/23/15
f 20/25/18 18/114/16 17/26/17
f 22/28/20 20/115/18 19/29/19
f 24/31/22 22/116/20 21/32/21
f 3/34/24 24/117/22 23/35/23
f 26/37/8 27/118/10 28/38/25
f 30/40/6 26/119/8 25/41/26
f 32/43/4 30/120/6 29/44/27
f 34/46/1 32/121/4 31/47/28
f 36/49/24 34/122/1 33/50/29
f 38/52/22 36/123/24 35/53/30
f 40/55/20 38/124/22 37/56/31
f 42/58/18 40/125/20 39/59/32
f 44/61/16 42/126/18 41/62/33
f 46/64/14 44/127/16 43/65/34
f 48/67/12 46/128/14 45/68/35
f 27/70/10 48/129/12 47/71/36
f 50/73/37 49/103/48 4/74/2
f 55/76/38 50/73/37 23/75/23
f 53/78/39 15/82/15 13/79/13
f 53/78/39 54/85/42 17/81/17
f 31/83/28 29/130/27 56/84/41
f 17/81/17 54/85/42 56/84/41
f 13/79/13 11/104/11 57/87/43
f 33/88/29 31/83/28 54/85/42
f 59/89/44 58/93/45 45/90/35
f 56/84/41 29/130/27 25/92/26
f 4/74/2 49/103/48 58/93/45
f 52/95/46 9/131/9 7/96/7
f 39/98/32 52/95/46 60/97/47
f 5/100/5 1/94/3 58/93/45
f 57/87/43 52/95/46 39/98/32
f 60/97/47 7/96/7 5/100/5
f 33/88/29 53/78/39 51/80/40
f 49/103/48 47/132/36 45/90/35
f 51/80/40 57/87/43 37/101/31
f 11/104/11 9/131/9 52/95/46
f 19/86/19 56/84/41 55/76/38
f 25/92/26 28/105/25 50/73/37
f 60/97/47 59/89/44 43/91/34
f 28/105/25 47/132/36 49/103/48
usemtl FROSTED
s 2
f 46/133/49 30/134/49 32/135/49
f 36/136/49 32/135/49 34/137/49
f 46/133/49 38/138/49 40/139/49
f 46/133/49 27/140/49 26/141/49
f 46/133/49 42/142/49 44/143/49
f 46/133/49 26/141/49 30/134/49
f 36/136/49 46/133/49 32/135/49
f 46/133/49 36/136/49 38/138/49
f 46/133/49 48/144/49 27/140/49
f 46/133/49 40/139/49 42/142/49
