# SELECT.wad, map SELECT
# Created by Ultimate Doom Builder 3.0.0.3789

o SELECT
v 32 0 32
v 32 76.8000030517578 32
v -32 76.8000030517578 32
v -32 0 32
v -32 0 -32
v -32 76.8000030517578 -32
v 32 76.8000030517578 -32
v 32 0 -32
v 24 73.2000029087067 0
v 24 76.8000030517578 0
v -24 76.8000030517578 -24
v -24 73.2000029087067 -24
v -24 73.2000029087067 24
v -24 76.8000030517578 24
v -8 73.2000029087067 0
v -8 76.8000030517578 0
v 32 76.8000030517578 0
vn 0 0 1
vn 0 0 -1
vn 1 0 0
vn -0.447213595499958 0 0.894427190999916
vn -0.447213595499958 0 -0.894427190999916
vn 0.832050294337844 0 0.554700196225229
vn 0.832050294337844 0 -0.554700196225229
vn -1 0 0
vn 0 1 0
vt 1 -1
vt 1 0
vt 0 0
vt 0 -1
vt -1 -1
vt -1 0
vt 0.84375 -0.046875
vt 0.84375 0
vt 0 -0.046875
vt 0.453125 -0.046875
vt 0.453125 0
vt 4 -4
vt 4 0
vt 0 -4
vt 51.5 -422
vt 52 -422
vt 52 -420
vt 48.5 -420.5
vt 48.5 -423.5
vt 49.5 -422
vt 52 -424
vt 48 -424
vt 48 -420
vt 12.375 -105.5
vt 12.125 -105.875
vt 12.875 -105.5
vt 12.125 -105.125
usemtl ARROW
f 1/1/1 2/2/1 3/3/1 4/4/1
f 5/5/2 6/6/2 7/3/2 8/4/2
usemtl BRASS_D
f 8/1/3 7/2/3 2/3/3 1/4/3
f 9/7/4 10/8/4 11/3/4 12/9/4
f 13/7/5 14/8/5 10/3/5 9/9/5
f 15/10/6 16/11/6 14/3/6 13/9/6
f 12/10/7 11/11/7 16/3/7 15/9/7
usemtl BLUELIGH
f 4/12/8 3/13/8 6/3/8 5/14/8
usemtl BLUELIGH
f 10/15/9 17/16/9 7/17/9
f 11/18/9 10/15/9 7/17/9
f 14/19/9 16/20/9 11/18/9
f 17/16/9 10/15/9 14/19/9
f 2/21/9 17/16/9 14/19/9
f 3/22/9 2/21/9 14/19/9
f 11/18/9 7/17/9 6/23/9
f 3/22/9 14/19/9 11/18/9
f 6/23/9 3/22/9 11/18/9
usemtl COMPFYEL
f 15/24/9 13/25/9 9/26/9
f 9/26/9 12/27/9 15/24/9
