# Blender v2.92.0 OBJ File: 'soy.blend'
# www.blender.org
mtllib testbox.mtl
o testbox_SELECT
v 32.000000 -0.000005 32.000000
v 32.000000 76.799995 32.000011
v -32.000000 76.800011 -31.999987
v 32.000000 76.800011 -31.999987
v 32.000000 0.000005 -32.000000
v -24.000000 3.584634 -24.000000
v -24.000000 3.584627 24.000000
v -24.000000 -0.015369 24.000000
v 24.000000 -0.015365 0.000013
v 24.000000 3.584630 0.000014
v -32.000000 -0.015370 32.000000
v -32.000000 -0.015359 -32.000000
v -32.000000 76.799995 32.000011
v 24.000000 73.200005 0.000012
v 24.000000 76.800003 0.000013
v -24.000000 76.800011 -23.999987
v -24.000000 73.200012 -23.999989
v -24.000000 73.199997 24.000011
v -24.000000 76.799995 24.000013
v -8.000000 73.200005 0.000012
v -8.000000 76.800003 0.000013
v 32.000000 76.800003 0.000013
v -24.000000 -0.015361 -24.000000
v -8.000000 3.584630 0.000014
v -8.000000 -0.015365 0.000013
v 32.000000 -0.015365 0.000013
v 25.599997 7.680005 32.000000
v 25.599997 69.119987 32.000011
v -25.599998 7.680001 32.000000
v -25.599998 7.680005 32.000000
v -25.599998 56.047646 32.000008
v -25.599998 56.055168 32.000008
v -25.599998 69.119987 32.000011
v -25.599998 7.680011 -31.999998
v -25.599998 69.120003 -31.999989
v 25.599993 69.120003 -31.999989
v 25.599993 69.120003 -31.999989
v 25.599993 7.680016 -31.999998
v 32.000000 7.680016 -25.599993
v 32.000000 69.120003 -25.599983
v 32.000000 7.680007 25.599995
v 32.000000 69.119987 25.600004
v -32.000000 7.680007 25.599998
v -32.000000 69.119987 25.600008
v -32.000000 7.680016 -25.599985
v -32.000000 69.120003 -25.599976
vt 0.000000 -1.000000
vt 0.900000 -0.899984
vt 0.100000 -0.899836
vt 1.000000 0.000000
vt 0.100000 -0.099984
vt 0.900000 -0.099996
vt -0.900000 -0.099984
vt 0.000000 0.000000
vt -0.100000 -0.099996
vt 0.000000 -1.000000
vt -1.000000 -1.000000
vt -0.100000 -0.899984
vt 0.000000 0.000000
vt 0.100000 -0.270068
vt 1.000000 -1.000000
vt 0.100000 -0.899836
vt 0.100000 -0.270166
vt -1.000000 0.000000
vt -0.100000 -0.099996
vt -0.900000 -0.899836
vt 0.453125 0.000000
vt 0.000000 -0.046875
vt 0.453125 -0.046875
vt 0.453125 0.000000
vt 0.000000 -0.046875
vt 0.453125 -0.046875
vt 0.843750 0.000000
vt 0.000000 -0.046875
vt 0.843750 -0.046875
vt 0.843750 0.000000
vt 0.000000 -0.046875
vt 0.843750 -0.046875
vt 0.843750 0.000000
vt 0.000000 -0.046875
vt 0.843750 -0.046875
vt 0.843750 0.000000
vt 0.000000 -0.046875
vt 0.843750 -0.046875
vt 0.453125 0.000000
vt 0.000000 -0.046875
vt 0.453125 -0.046875
vt 0.453125 0.000000
vt 0.000000 -0.046875
vt 0.453125 -0.046875
vt 0.500000 0.000000
vt 0.000000 0.000000
vt 0.100000 -0.100000
vt 0.000000 -1.000000
vt 1.000000 -1.000000
vt 0.100000 -0.900000
vt 0.000000 0.000000
vt 0.000000 0.000000
vt 0.000000 0.000000
vt 0.000000 0.000000
vt 0.000000 0.000000
vt 0.000000 0.000000
vt 0.000000 0.000000
vt 0.000000 0.000000
vt 0.900000 -0.100000
vt 1.000000 0.000000
vt 0.900000 -0.900000
vt 48.000000 -420.000000
vt 48.000000 -424.000000
vt 48.500000 -420.500000
vt 48.500000 -423.500000
vt 52.000000 -420.000000
vt 52.000000 -424.000000
vt 52.000000 -422.000000
vt 51.500000 -422.000000
vt 49.500000 -422.000000
vt 51.500000 -422.000000
vt 52.000000 -422.000000
vt 52.000000 -420.000000
vt 48.500000 -420.500000
vt 48.500000 -423.500000
vt 49.500000 -422.000000
vt 52.000000 -424.000000
vt 48.000000 -424.000000
vt 48.000000 -420.000000
vt 4.000000 0.000000
vt 0.400001 -0.399920
vt 3.600000 -0.399920
vt 0.000000 -4.000000
vt 4.000000 -4.000000
vt 0.400001 -3.599279
vt 0.000000 0.000000
vt 3.599999 -3.599279
vt 12.875000 -105.500000
vt 12.125000 -105.125000
vt 12.375000 -105.500000
vt 12.125000 -105.875000
vt 12.375000 -105.500000
vt 12.125000 -105.875000
vt 12.875000 -105.500000
vt 12.125000 -105.125000
vn -0.8428 -0.5089 0.1751
vn 0.0000 -0.0000 1.0000
vn 0.0000 0.0000 -1.0000
vn 0.0002 -0.9680 -0.2511
vn -0.0366 -0.6203 -0.7835
vn 0.4619 -0.7493 0.4746
vn 0.8321 0.0000 0.5547
vn 0.8321 0.0000 -0.5547
vn -0.4472 -0.0000 0.8944
vn -0.4472 0.0000 -0.8944
vn 0.8320 -0.0000 0.5547
vn 0.7071 0.7071 -0.0000
vn 1.0000 0.0000 0.0000
vn 0.9881 0.1541 0.0000
vn 0.0001 -1.0000 0.0001
vn 0.0001 -1.0000 -0.0001
vn 0.0000 -1.0000 0.0002
vn 0.0000 -1.0000 -0.0000
vn 0.0000 -1.0000 0.0005
vn 0.0000 1.0000 -0.0000
vn -1.0000 -0.0000 0.0000
usemtl ARROW
s 1
f 11/1/1 27/2/2 29/3/2
f 2/4/2 33/5/2 28/6/2
f 35/7/3 4/8/3 37/9/2
f 5/10/4 12/11/5 38/12/3
f 33/5/2 13/13/2 32/14/2
f 13/13/2 11/1/1 32/14/2
f 1/15/6 2/4/2 28/6/2
f 1/15/6 28/6/2 27/2/2
f 29/3/2 30/16/2 11/1/1
f 30/16/2 31/17/2 11/1/1
f 31/17/2 32/14/2 11/1/1
f 11/1/1 1/15/6 27/2/2
f 2/4/2 13/13/2 33/5/2
f 35/7/3 3/18/3 4/8/3
f 37/9/2 36/19/2 35/7/3
f 36/19/2 37/9/2 4/8/3
f 12/11/5 3/18/3 34/20/3
f 3/18/3 35/7/3 34/20/3
f 36/19/2 4/8/3 38/12/3
f 4/8/3 5/10/4 38/12/3
f 12/11/5 34/20/3 38/12/3
usemtl BRASS_D
f 8/21/7 24/22/7 7/23/7
f 25/24/8 6/25/8 24/26/8
f 23/27/9 10/28/9 6/29/9
f 9/30/10 7/31/10 10/32/10
f 15/33/9 17/34/9 14/35/9
f 19/36/10 14/37/10 18/38/10
f 21/39/11 18/40/11 20/41/11
f 16/42/8 20/43/8 17/44/8
f 22/45/12 2/46/12 42/47/13
f 1/48/13 5/49/13 41/50/13
f 8/21/7 25/51/7 24/22/7
f 25/24/8 23/52/8 6/25/8
f 23/27/9 9/53/9 10/28/9
f 9/30/10 8/54/10 7/31/10
f 15/33/9 16/55/9 17/34/9
f 19/36/10 15/56/10 14/37/10
f 21/39/11 19/57/11 18/40/11
f 16/42/8 21/58/8 20/43/8
f 42/47/13 40/59/13 22/45/12
f 40/59/13 4/60/14 22/45/12
f 41/50/13 42/47/13 2/46/12
f 5/49/13 4/60/14 39/61/13
f 4/60/14 40/59/13 39/61/13
f 41/50/13 2/46/12 1/48/13
f 5/49/13 39/61/13 41/50/13
usemtl BLUELIGH
f 11/62/1 12/63/5 8/64/15
f 12/63/5 23/65/16 8/64/15
f 8/64/15 1/66/6 11/62/1
f 12/63/5 5/67/4 23/65/16
f 5/67/4 26/68/15 23/65/16
f 26/68/15 9/69/17 23/65/16
f 23/65/16 25/70/18 8/64/15
f 8/64/15 9/69/18 1/66/6
f 9/69/17 26/68/15 1/66/19
f 15/71/20 22/72/12 4/73/14
f 16/74/20 15/71/20 4/73/20
f 19/75/20 21/76/20 16/74/20
f 22/72/12 15/71/20 19/75/20
f 2/77/12 22/72/12 19/75/20
f 13/78/20 2/77/12 19/75/20
f 16/74/20 4/73/20 3/79/20
f 13/78/20 19/75/20 16/74/20
f 3/79/20 13/78/20 16/74/20
f 13/80/21 46/81/21 44/82/21
f 12/83/5 11/84/1 45/85/21
f 13/80/21 3/86/21 46/81/21
f 46/81/21 3/86/21 45/85/21
f 3/86/21 12/83/5 45/85/21
f 11/84/1 13/80/21 43/87/21
f 13/80/21 44/82/21 43/87/21
f 11/84/1 43/87/21 45/85/21
usemtl COMPFYEL
f 10/88/18 7/89/18 24/90/18
f 24/90/18 6/91/18 10/88/18
f 20/92/20 18/93/20 14/94/20
f 14/94/20 17/95/20 20/92/20
